<?xml version="1.0" standalone="no"?>
<!DOCTYPE svg PUBLIC "-//W3C//DTD SVG 20010904//EN"
 "http://www.w3.org/TR/2001/REC-SVG-20010904/DTD/svg10.dtd">
<svg version="1.0" xmlns="http://www.w3.org/2000/svg"
 width="767.952000pt" height="767.952000pt" viewBox="0 0 767.952000 767.952000"
 preserveAspectRatio="xMidYMid meet">
<metadata>
Created by potrace 1.16, written by Peter Selinger 2001-2019
</metadata>
<g transform="translate(23.976000,743.976000) scale(0.138728,-0.138728)"
fill="#000000" stroke="none">
<path fill="#000000" stroke="none" d="M2556 5131 c-8 -28 -18 -70 -21 -94 -8
-52 10 -77 56 -77 35 0 45 27 34 98 -18 131 -44 157 -69 73z"/>
<path fill="#000000" stroke="none" d="M3717 5103 c-8 -13 -37 -134 -37 -152
0 -48 74 -69 90 -25 24 63 4 184 -30 184 -11 0 -21 -3 -23 -7z"/>
<path fill="#000000" stroke="none" d="M2472 4433 c-51 -25 -132 -121 -167
-198 -77 -169 -99 -301 -97 -605 1 -252 14 -371 66 -595 29 -125 70 -471 63
-528 -4 -29 -21 -55 -69 -110 -36 -40 -84 -100 -108 -134 -38 -54 -48 -63 -75
-63 -63 0 -105 56 -115 155 -4 33 -14 107 -23 165 -9 58 -21 155 -26 217 -14
152 -121 595 -191 788 -32 88 -107 217 -162 279 -41 46 -57 56 -101 66 -39 9
-63 9 -94 1 -62 -17 -134 -70 -163 -121 -69 -120 -107 -387 -80 -573 38 -259
85 -454 154 -645 30 -81 66 -186 80 -234 15 -48 54 -144 87 -213 158 -336 166
-399 85 -672 -54 -183 -113 -228 -189 -144 -20 22 -43 55 -53 73 -23 45 -189
274 -233 321 -69 74 -327 294 -396 338 -78 50 -161 89 -266 124 -175 60 -219
29 -219 -153 0 -153 16 -200 115 -349 174 -261 247 -345 533 -612 140 -130
176 -184 217 -330 68 -236 214 -519 305 -591 73 -58 136 -80 230 -80 99 0 135
10 296 80 113 50 243 97 328 119 63 16 451 -35 726 -96 139 -30 304 -40 403
-24 40 6 132 35 206 64 151 58 194 90 315 236 55 66 126 186 126 214 0 4 25
60 55 124 30 63 57 131 61 151 3 21 10 51 14 67 5 17 14 85 19 152 8 90 19
143 40 200 49 136 173 321 315 473 34 36 79 91 101 123 22 32 61 86 88 120 26
34 68 94 94 132 25 39 63 95 83 125 99 147 157 303 167 446 5 81 3 100 -18
160 -26 72 -57 110 -128 156 -68 43 -135 40 -226 -12 -123 -69 -205 -168 -408
-495 -90 -144 -118 -198 -167 -319 -27 -66 -64 -139 -82 -164 -37 -49 -99 -86
-129 -77 -11 4 -53 41 -94 82 -145 148 -167 272 -114 646 19 133 42 234 109
477 123 442 133 492 134 690 1 153 -1 172 -27 255 -37 124 -90 229 -122 243
-14 7 -52 12 -83 12 -121 0 -243 -93 -317 -240 -70 -139 -112 -292 -130 -465
-8 -82 -24 -220 -36 -305 -18 -139 -20 -184 -14 -435 l7 -280 -30 -41 c-27
-37 -36 -42 -79 -46 -56 -4 -197 15 -235 32 -41 19 -61 104 -62 275 -1 165 8
477 24 805 23 470 -24 700 -157 769 -32 16 -123 13 -161 -6z"/>
<path fill="#000000" stroke="none" d="M1329 4243 c-17 -41 -22 -134 -10 -165
12 -32 50 -38 75 -12 20 20 20 23 -7 118 -24 87 -41 103 -58 59z"/>
<path fill="#000000" stroke="none" d="M5046 3557 c-74 -97 -66 -197 14 -172
24 8 50 88 50 157 0 41 -3 48 -19 48 -11 0 -31 -15 -45 -33z"/>
<path fill="#000000" stroke="none" d="M80 2625 c0 -49 25 -93 56 -101 57 -14
56 46 -1 103 -42 42 -55 42 -55 -2z"/>
</g>
</svg>
