<?xml version="1.0" standalone="no"?>
<!DOCTYPE svg PUBLIC "-//W3C//DTD SVG 20010904//EN"
 "http://www.w3.org/TR/2001/REC-SVG-20010904/DTD/svg10.dtd">
<svg version="1.0" xmlns="http://www.w3.org/2000/svg"
 width="511.000000pt" height="500.000000pt" viewBox="0 0 511.000000 500.000000"
 preserveAspectRatio="xMidYMid meet">
<metadata>
Created by potrace 1.16, written by Peter Selinger 2001-2019
</metadata>
<g transform="translate(0.000000,500.000000) scale(0.100000,-0.100000)"
fill="#000000" stroke="none">
<path fill="#000000" stroke="none" d="M2454 4974 c-10 -14 -19 -47 -22 -74
-4 -42 -2 -50 18 -60 12 -6 33 -9 46 -6 20 5 24 12 24 46 0 42 -26 120 -41
120 -5 0 -16 -12 -25 -26z"/>
<path fill="#000000" stroke="none" d="M3711 4624 c-19 -25 -38 -90 -29 -99 2
-3 18 -8 35 -11 28 -6 32 -3 38 25 8 36 -3 111 -15 111 -5 0 -18 -12 -29 -26z"/>
<path fill="#000000" stroke="none" d="M974 4544 c-10 -39 2 -113 21 -134 21
-24 58 -26 75 -5 9 11 8 25 -5 64 -29 89 -78 129 -91 75z"/>
<path fill="#000000" stroke="none" d="M2357 4203 c-63 -19 -121 -75 -138
-133 -28 -103 -10 -586 32 -855 21 -127 32 -231 48 -425 15 -190 -25 -371
-122 -554 -55 -103 -96 -138 -169 -140 l-53 -1 -32 60 c-31 58 -55 142 -74
255 -5 30 -22 116 -38 190 -16 74 -37 173 -46 220 -10 47 -34 141 -53 210 -19
69 -43 166 -53 216 -21 105 -60 209 -127 338 -34 66 -66 110 -122 166 -83 84
-113 104 -177 115 -31 5 -53 2 -85 -13 -96 -42 -135 -134 -124 -293 12 -178
43 -295 154 -595 17 -44 47 -140 67 -213 20 -72 56 -184 82 -249 129 -333 164
-449 189 -627 13 -93 24 -205 24 -248 0 -80 -23 -257 -39 -298 -14 -36 -61
-76 -110 -94 -74 -26 -88 -21 -190 65 -88 74 -189 204 -280 361 -68 117 -108
172 -191 264 -124 136 -196 186 -277 193 -62 5 -128 -16 -161 -51 -27 -29 -51
-97 -59 -167 -11 -112 38 -225 180 -415 113 -150 250 -284 497 -485 77 -63
104 -92 143 -157 33 -55 50 -97 57 -138 5 -32 20 -88 34 -124 13 -36 32 -90
42 -120 19 -62 79 -133 136 -162 44 -23 140 -35 193 -25 45 9 128 83 217 196
99 125 166 149 408 150 198 0 222 -9 307 -115 116 -147 162 -209 198 -272 44
-76 73 -101 172 -149 235 -113 407 -98 592 50 125 100 139 116 201 228 51 93
66 132 91 237 36 152 65 200 187 316 285 271 502 502 630 670 50 66 110 141
132 167 56 64 126 189 151 268 11 36 25 105 30 154 10 86 10 89 -15 127 -31
46 -74 58 -156 41 -92 -20 -177 -69 -234 -138 -28 -33 -82 -97 -121 -140 -38
-44 -91 -107 -118 -139 -26 -33 -79 -98 -118 -145 -39 -47 -92 -116 -118 -155
-26 -38 -75 -111 -110 -162 -75 -111 -228 -273 -257 -273 -44 0 -79 75 -90
188 -7 84 -26 177 -66 317 -30 108 -31 113 -24 267 5 142 9 165 40 255 18 54
43 141 56 193 29 122 45 166 146 392 130 294 175 453 175 632 1 118 -11 177
-52 262 -24 52 -35 64 -69 78 -68 27 -121 17 -173 -32 -33 -31 -153 -274 -202
-409 -48 -130 -77 -260 -125 -558 -42 -261 -75 -402 -110 -483 -17 -37 -28
-47 -86 -73 -76 -35 -89 -34 -200 17 -62 28 -76 39 -95 75 -20 39 -21 53 -16
188 3 80 11 324 17 541 6 217 14 430 19 473 4 44 3 107 -1 141 -5 34 -12 118
-17 187 -7 113 -12 133 -41 192 -79 161 -174 213 -313 170z"/>
<path fill="#000000" stroke="none" d="M5036 2800 c-42 -37 -53 -75 -30 -101
40 -44 84 -5 92 82 6 60 -10 65 -62 19z"/>
<path fill="#000000" stroke="none" d="M4 2585 c-10 -25 5 -81 26 -100 18 -16
21 -17 44 -1 30 19 26 38 -17 85 -30 34 -45 39 -53 16z"/>
</g>
</svg>
