<?xml version="1.0" standalone="no"?>
<!DOCTYPE svg PUBLIC "-//W3C//DTD SVG 20010904//EN"
 "http://www.w3.org/TR/2001/REC-SVG-20010904/DTD/svg10.dtd">
<svg version="1.0" xmlns="http://www.w3.org/2000/svg"
 width="505.000000pt" height="519.000000pt" viewBox="0 0 505.000000 519.000000"
 preserveAspectRatio="xMidYMid meet">
<metadata>
Created by potrace 1.16, written by Peter Selinger 2001-2019
</metadata>
<g transform="translate(0.000000,519.000000) scale(0.100000,-0.100000)"
fill="#000000" stroke="none">
<path fill="#000000" stroke="none" d="M2485 5128 c-37 -125 -28 -168 36 -168
35 0 45 27 35 103 -16 125 -45 151 -71 65z"/>
<path fill="#000000" stroke="none" d="M3652 5107 c-11 -13 -42 -129 -42 -156
0 -48 74 -69 90 -25 30 79 -10 228 -48 181z"/>
<path fill="#000000" stroke="none" d="M2402 4433 c-51 -25 -132 -121 -167
-198 -77 -169 -99 -301 -97 -605 1 -252 14 -371 66 -595 29 -125 70 -471 63
-528 -4 -29 -21 -55 -69 -110 -36 -40 -84 -100 -108 -134 -38 -54 -48 -63 -75
-63 -63 0 -105 56 -115 155 -4 33 -14 107 -23 165 -9 58 -21 155 -26 217 -14
152 -121 595 -191 788 -32 88 -107 217 -162 279 -41 46 -57 56 -101 66 -39 9
-63 9 -94 1 -62 -17 -134 -70 -163 -121 -69 -120 -107 -387 -80 -573 38 -259
85 -454 154 -645 30 -81 66 -186 80 -234 15 -48 54 -144 87 -213 158 -336 166
-399 85 -672 -65 -221 -141 -242 -244 -68 -32 56 -190 273 -231 320 -53 60
-328 293 -396 336 -154 98 -374 173 -431 147 -38 -18 -54 -69 -54 -176 0 -153
16 -200 115 -349 174 -261 247 -345 533 -612 140 -130 176 -184 217 -330 68
-236 214 -519 305 -591 73 -58 136 -80 230 -80 99 0 135 10 296 80 113 50 243
97 328 119 60 16 523 -46 753 -100 214 -51 382 -38 592 46 139 56 187 92 305
234 55 66 126 186 126 214 0 4 25 60 55 124 30 63 57 131 61 151 3 21 10 51
14 67 5 17 14 85 19 152 8 90 19 143 40 200 49 136 173 321 315 473 34 36 79
91 101 123 22 32 63 89 92 125 28 37 69 93 90 125 21 32 57 87 80 122 99 150
148 273 168 420 13 98 13 101 -13 178 -27 85 -55 120 -131 169 -68 43 -135 40
-226 -12 -123 -69 -205 -168 -408 -495 -90 -144 -118 -198 -167 -319 -27 -66
-64 -139 -82 -164 -37 -49 -99 -86 -129 -77 -11 4 -53 41 -94 82 -145 148
-167 272 -114 646 19 133 42 234 109 477 153 549 171 705 109 935 -28 104 -93
241 -122 256 -12 7 -47 12 -77 12 -123 0 -251 -96 -325 -243 -70 -139 -112
-292 -130 -465 -8 -82 -24 -220 -36 -305 -18 -139 -20 -184 -14 -435 l7 -280
-30 -41 c-27 -37 -36 -42 -79 -46 -56 -4 -197 15 -235 32 -41 19 -61 104 -62
275 -1 165 8 477 24 805 27 547 -42 781 -230 780 -30 0 -70 -8 -88 -17z"/>
<path fill="#000000" stroke="none" d="M1258 4243 c-16 -41 -22 -147 -9 -172
13 -24 48 -28 76 -7 18 13 18 15 0 92 -27 119 -44 141 -67 87z"/>
<path fill="#000000" stroke="none" d="M4976 3557 c-74 -97 -66 -197 14 -172
24 8 50 88 50 157 0 41 -3 48 -19 48 -11 0 -31 -15 -45 -33z"/>
<path fill="#000000" stroke="none" d="M10 2625 c0 -49 25 -93 56 -101 57 -14
56 46 -1 103 -42 42 -55 42 -55 -2z"/>
</g>
</svg>
