<?xml version="1.0" standalone="no"?>
<!DOCTYPE svg PUBLIC "-//W3C//DTD SVG 20010904//EN"
 "http://www.w3.org/TR/2001/REC-SVG-20010904/DTD/svg10.dtd">
<svg version="1.0" xmlns="http://www.w3.org/2000/svg"
 width="75.000000pt" height="97.000000pt" viewBox="0 0 75.000000 97.000000"
 preserveAspectRatio="xMidYMid meet">
<metadata>
Created by potrace 1.16, written by Peter Selinger 2001-2019
</metadata>
<g transform="translate(0.000000,97.000000) scale(0.100000,-0.100000)"
fill="#000000" stroke="none">
<path fill="#000000" stroke="none" d="M376 938 c-3 -18 -7 -60 -8 -92 -3 -58
-3 -59 25 -60 l27 -2 0 71 c0 38 -3 80 -6 93 -9 33 -32 27 -38 -10z"/>
<path fill="#000000" stroke="none" d="M236 905 c-3 -13 -9 -51 -12 -84 l-7
-60 29 3 c33 4 36 18 27 114 -6 56 -26 71 -37 27z"/>
<path fill="#000000" stroke="none" d="M515 804 c-7 -74 -2 -101 14 -75 6 9
11 10 15 2 16 -26 28 3 22 53 -10 76 -17 96 -31 96 -8 0 -15 -25 -20 -76z"/>
<path fill="#000000" stroke="none" d="M232 707 c-43 -46 -52 -154 -16 -205
20 -28 69 -30 84 -3 13 25 13 151 0 185 -15 40 -43 50 -68 23z"/>
<path fill="#000000" stroke="none" d="M370 668 c-24 -52 -26 -138 -4 -179 12
-24 21 -30 42 -27 84 10 87 234 3 246 -17 3 -25 -6 -41 -40z"/>
<path fill="#000000" stroke="none" d="M676 689 c-4 -9 -6 -36 -4 -60 2 -37 7
-45 26 -47 28 -4 29 26 3 83 -14 31 -20 36 -25 24z"/>
<path fill="#000000" stroke="none" d="M25 620 c-7 -21 -9 -129 -3 -136 2 -2
14 0 27 3 20 5 22 10 17 42 -3 20 -6 53 -6 74 0 41 -24 53 -35 17z"/>
<path fill="#000000" stroke="none" d="M509 593 c-22 -50 -21 -112 1 -153 14
-26 55 -26 74 1 13 20 14 18 14 -25 0 -56 14 -76 52 -76 55 0 105 101 79 156
-21 43 -61 44 -100 2 l-31 -33 8 35 c17 78 -6 140 -52 140 -20 0 -29 -9 -45
-47z"/>
<path fill="#000000" stroke="none" d="M32 447 c-6 -7 -14 -31 -17 -52 -9 -55
26 -109 73 -113 27 -3 34 1 42 23 18 48 12 104 -15 130 -26 27 -66 33 -83 12z"/>
<path fill="#000000" stroke="none" d="M263 394 c-32 -13 -55 -74 -59 -156 -2
-46 -5 -101 -7 -123 -4 -46 15 -91 41 -99 30 -10 260 2 284 15 33 17 87 70
104 101 17 32 18 78 3 110 -6 13 -32 40 -57 61 -39 30 -55 37 -92 37 -32 0
-60 9 -95 30 -46 27 -91 36 -122 24z"/>
</g>
</svg>
