<?xml version="1.0" standalone="no"?>
<!DOCTYPE svg PUBLIC "-//W3C//DTD SVG 20010904//EN"
 "http://www.w3.org/TR/2001/REC-SVG-20010904/DTD/svg10.dtd">
<svg version="1.0" xmlns="http://www.w3.org/2000/svg"
 width="767.952000pt" height="767.952000pt" viewBox="0 0 767.952000 767.952000"
 preserveAspectRatio="xMidYMid meet">
<metadata>
Created by potrace 1.16, written by Peter Selinger 2001-2019
</metadata>
<g transform="translate(23.976000,743.976000) scale(0.765957,-0.765957)"
fill="#000000" stroke="none">
<path fill="#000000" stroke="none" d="M540 904 c-6 -15 -9 -32 -7 -37 2 -6
-7 -20 -20 -33 -25 -25 -32 -91 -13 -110 14 -14 -5 -102 -30 -134 -14 -19 -22
-22 -30 -14 -16 16 -29 80 -30 141 0 45 -4 55 -26 70 -14 9 -30 27 -35 40 -5
13 -14 23 -20 23 -7 0 -9 -21 -5 -67 3 -38 5 -73 6 -79 0 -6 10 -24 23 -40 20
-27 22 -39 23 -181 1 -172 1 -173 -73 -192 -28 -8 -52 -24 -72 -48 -28 -34
-34 -37 -78 -35 -147 8 -138 9 -141 -16 -2 -13 2 -30 8 -38 14 -16 66 -19 75
-5 3 5 19 12 35 16 23 5 48 -2 105 -30 62 -29 78 -43 95 -75 18 -35 25 -40 54
-40 38 0 58 18 81 77 10 26 26 45 43 53 15 6 51 33 80 59 40 37 63 50 97 55
52 8 75 37 75 96 0 53 27 80 79 80 32 0 44 6 65 31 37 44 34 59 -12 59 -30 0
-45 -7 -65 -30 -69 -77 -157 6 -159 148 0 27 7 63 16 80 20 39 20 62 0 90 -8
12 -10 22 -5 22 6 0 11 16 11 35 0 19 -4 35 -10 35 -14 0 -32 -40 -26 -57 4
-9 -2 -25 -11 -36 -15 -16 -18 -34 -15 -116 3 -87 1 -99 -17 -115 -20 -18 -22
-18 -41 -1 -27 24 -27 101 0 161 22 47 20 73 -6 99 -9 8 -11 15 -5 15 14 0 14
57 1 65 -6 3 -15 -6 -20 -21z"/>
</g>
</svg>
