<?xml version="1.0" standalone="no"?>
<!DOCTYPE svg PUBLIC "-//W3C//DTD SVG 20010904//EN"
 "http://www.w3.org/TR/2001/REC-SVG-20010904/DTD/svg10.dtd">
<svg version="1.0" xmlns="http://www.w3.org/2000/svg"
 width="88.000000pt" height="92.000000pt" viewBox="0 0 88.000000 92.000000"
 preserveAspectRatio="xMidYMid meet">
<metadata>
Created by potrace 1.16, written by Peter Selinger 2001-2019
</metadata>
<g transform="translate(0.000000,92.000000) scale(0.100000,-0.100000)"
fill="#000000" stroke="none">
<path fill="#000000" stroke="none" d="M303 847 c-34 -35 -65 -76 -69 -91 -12
-50 15 -150 45 -161 20 -8 80 14 105 39 32 32 47 84 39 140 l-6 49 32 -6 c23
-5 31 -3 31 8 0 9 -9 15 -24 15 -26 0 -42 15 -48 45 -7 41 -42 28 -105 -38z"/>
<path fill="#000000" stroke="none" d="M506 882 c-2 -4 -6 -63 -8 -131 l-3
-123 30 -24 c51 -41 118 -12 132 59 6 31 28 46 44 30 7 -7 3 -22 -10 -44 -12
-19 -29 -50 -38 -69 -9 -19 -23 -43 -31 -52 -16 -20 -8 -38 16 -38 10 0 26
-10 36 -21 15 -18 25 -20 67 -15 44 6 49 5 49 -13 0 -11 -9 -25 -20 -31 -19
-10 -49 -60 -70 -115 -13 -34 21 -75 63 -75 30 -1 31 -1 13 -15 -11 -8 -16
-18 -12 -22 13 -13 40 13 75 71 28 48 34 66 34 119 0 87 -8 110 -40 104 -25
-5 -25 -4 -17 47 10 67 8 89 -13 166 -16 58 -21 65 -46 68 -21 3 -27 -1 -27
-16 0 -10 -3 -22 -6 -25 -10 -10 -82 56 -115 107 -17 26 -39 51 -49 56 -23 12
-47 13 -54 2z"/>
<path fill="#000000" stroke="none" d="M167 683 c-22 -22 -29 -25 -36 -15 -17
28 -46 7 -81 -58 -30 -57 -35 -74 -35 -135 0 -116 39 -160 103 -118 15 10 36
23 47 29 17 10 20 21 19 77 0 40 -7 75 -16 89 -8 13 -18 38 -21 55 -5 28 -3
35 19 49 26 17 51 54 37 54 -5 0 -21 -12 -36 -27z"/>
<path fill="#000000" stroke="none" d="M170 610 c0 -5 7 -10 16 -10 8 0 12 5
9 10 -3 6 -10 10 -16 10 -5 0 -9 -4 -9 -10z"/>
<path fill="#000000" stroke="none" d="M260 545 c0 -8 5 -15 10 -15 6 0 10 7
10 15 0 8 -4 15 -10 15 -5 0 -10 -7 -10 -15z"/>
<path fill="#000000" stroke="none" d="M455 525 c-51 -11 -115 -43 -115 -57 0
-4 -12 -22 -28 -40 -15 -18 -34 -46 -42 -61 -8 -16 -25 -40 -37 -53 -13 -14
-23 -28 -23 -32 0 -4 -8 -18 -17 -32 -9 -13 -19 -41 -20 -62 -4 -33 1 -43 37
-78 22 -22 47 -40 55 -40 8 0 18 -6 22 -12 14 -22 79 -50 109 -46 22 2 30 9
32 27 5 31 -15 68 -40 75 -17 4 -19 10 -13 33 12 51 24 56 151 67 43 4 57 1
84 -19 39 -29 55 -24 66 18 11 45 6 71 -22 134 -21 45 -23 57 -12 64 10 7 8
12 -9 24 -13 9 -23 24 -23 33 0 16 -40 45 -85 62 -11 4 -43 2 -70 -5z"/>
<path fill="#000000" stroke="none" d="M50 315 c7 -8 17 -15 22 -15 6 0 5 7
-2 15 -7 8 -17 15 -22 15 -6 0 -5 -7 2 -15z"/>
<path fill="#000000" stroke="none" d="M78 264 c24 -17 39 -14 27 5 -3 6 -16
11 -28 11 l-21 0 22 -16z"/>
<path fill="#000000" stroke="none" d="M90 221 c0 -5 7 -12 16 -15 24 -9 28
-7 14 9 -14 17 -30 20 -30 6z"/>
<path fill="#000000" stroke="none" d="M125 170 c-3 -5 1 -10 10 -10 9 0 13 5
10 10 -3 6 -8 10 -10 10 -2 0 -7 -4 -10 -10z"/>
<path fill="#000000" stroke="none" d="M420 120 c0 -5 5 -10 10 -10 6 0 10 5
10 10 0 6 -4 10 -10 10 -5 0 -10 -4 -10 -10z"/>
<path fill="#000000" stroke="none" d="M450 95 c0 -8 5 -15 10 -15 6 0 10 7
10 15 0 8 -4 15 -10 15 -5 0 -10 -7 -10 -15z"/>
<path fill="#000000" stroke="none" d="M705 100 c3 -5 8 -10 11 -10 2 0 4 5 4
10 0 6 -5 10 -11 10 -5 0 -7 -4 -4 -10z"/>
<path fill="#000000" stroke="none" d="M658 73 c7 -3 16 -2 19 1 4 3 -2 6 -13
5 -11 0 -14 -3 -6 -6z"/>
</g>
</svg>
