<?xml version="1.0" standalone="no"?>
<!DOCTYPE svg PUBLIC "-//W3C//DTD SVG 20010904//EN"
 "http://www.w3.org/TR/2001/REC-SVG-20010904/DTD/svg10.dtd">
<svg version="1.0" xmlns="http://www.w3.org/2000/svg"
 width="74.000000pt" height="105.000000pt" viewBox="0 0 74.000000 105.000000"
 preserveAspectRatio="xMidYMid meet">
<metadata>
Created by potrace 1.16, written by Peter Selinger 2001-2019
</metadata>
<g transform="translate(0.000000,105.000000) scale(0.100000,-0.100000)"
fill="#000000" stroke="none">
<path fill="#000000" stroke="none" d="M360 1028 c0 -12 4 -30 10 -38 8 -12
10 -12 15 2 9 23 3 50 -12 56 -8 2 -13 -5 -13 -20z"/>
<path fill="#000000" stroke="none" d="M571 921 c-11 -20 -5 -31 16 -31 7 0
13 11 13 25 0 29 -15 33 -29 6z"/>
<path fill="#000000" stroke="none" d="M187 913 c-13 -12 -7 -33 8 -33 8 0 15
9 15 20 0 20 -11 26 -23 13z"/>
<path fill="#000000" stroke="none" d="M345 850 c-22 -42 -24 -122 -5 -142 44
-43 99 -26 120 37 10 31 9 41 -12 83 -19 40 -28 47 -55 50 -27 3 -34 -2 -48
-28z"/>
<path fill="#000000" stroke="none" d="M164 749 c-12 -14 -19 -40 -22 -82 -5
-72 4 -85 61 -89 47 -3 66 21 67 80 0 54 -12 77 -50 97 -36 19 -33 19 -56 -6z"/>
<path fill="#000000" stroke="none" d="M553 713 c-8 -21 -18 -57 -21 -80 -4
-38 -2 -43 23 -55 22 -10 32 -9 53 3 35 19 58 88 45 132 -7 28 -14 32 -46 35
-35 3 -39 1 -54 -35z"/>
<path fill="#000000" stroke="none" d="M712 607 c-9 -11 -10 -17 -2 -22 15 -9
23 -1 18 21 -3 15 -4 16 -16 1z"/>
<path fill="#000000" stroke="none" d="M6 523 c-12 -12 -6 -43 9 -43 8 0 15 9
15 19 0 21 -13 34 -24 24z"/>
<path fill="#000000" stroke="none" d="M337 481 c-11 -4 -31 -31 -45 -61 -21
-43 -34 -57 -58 -64 -25 -8 -34 -18 -44 -49 -21 -72 10 -127 73 -127 42 0 63
15 80 58 16 40 47 67 90 77 25 7 25 7 24 -64 -1 -55 3 -74 18 -91 25 -28 59
-25 96 8 27 24 29 30 20 55 -6 16 -9 38 -6 50 4 15 -6 38 -30 71 -20 29 -35
61 -35 78 0 48 -31 68 -102 67 -35 0 -71 -4 -81 -8z"/>
<path fill="#000000" stroke="none" d="M630 428 c-14 -22 -20 -46 -18 -73 3
-38 5 -40 40 -43 49 -4 70 26 66 95 -3 46 -4 48 -35 51 -28 3 -36 -2 -53 -30z"/>
<path fill="#000000" stroke="none" d="M34 425 c-10 -25 5 -81 26 -100 22 -20
78 -13 87 12 6 16 -11 52 -39 83 -22 24 -66 27 -74 5z"/>
<path fill="#000000" stroke="none" d="M350 118 c-20 -22 -26 -63 -12 -86 13
-19 66 -31 88 -19 27 15 34 27 34 63 0 59 -69 86 -110 42z"/>
</g>
</svg>
