<?xml version="1.0" standalone="no"?>
<!DOCTYPE svg PUBLIC "-//W3C//DTD SVG 20010904//EN"
 "http://www.w3.org/TR/2001/REC-SVG-20010904/DTD/svg10.dtd">
<svg version="1.0" xmlns="http://www.w3.org/2000/svg"
 width="767.952000pt" height="767.952000pt" viewBox="0 0 767.952000 767.952000"
 preserveAspectRatio="xMidYMid meet">
<metadata>
Created by potrace 1.16, written by Peter Selinger 2001-2019
</metadata>
<g transform="translate(23.976000,743.976000) scale(0.791209,-0.791209)"
fill="#000000" stroke="none">
<path fill="#000000" stroke="none" d="M351 892 c-6 -11 -11 -39 -11 -61 0
-25 -6 -43 -15 -48 -20 -12 -86 -151 -87 -183 -1 -35 40 -118 65 -132 12 -6
36 -12 54 -13 27 -2 34 3 42 25 5 15 18 36 29 46 12 11 24 42 29 77 9 51 8 64
-9 100 -11 23 -29 52 -41 64 -14 16 -21 38 -22 73 -2 59 -18 83 -34 52z"/>
<path fill="#000000" stroke="none" d="M611 864 c-22 -28 -28 -69 -11 -79 16
-10 48 31 52 66 4 41 -14 47 -41 13z"/>
<path fill="#000000" stroke="none" d="M556 731 c-66 -69 -70 -249 -6 -289 17
-10 26 -8 59 12 22 14 46 35 54 46 11 15 17 18 22 9 14 -21 34 47 30 103 -3
51 -33 124 -59 140 -26 17 -73 8 -100 -21z"/>
<path fill="#000000" stroke="none" d="M805 554 c-24 -26 -34 -77 -16 -88 20
-13 74 73 64 102 -7 19 -22 15 -48 -14z"/>
<path fill="#000000" stroke="none" d="M60 545 c0 -28 32 -65 55 -65 20 0 19
34 -1 65 -22 34 -54 33 -54 0z"/>
<path fill="#000000" stroke="none" d="M129 443 c-20 -23 -17 -101 4 -148 30
-67 33 -70 70 -79 45 -12 80 4 112 52 20 29 21 38 12 74 -5 22 -19 50 -31 63
-48 51 -139 72 -167 38z"/>
<path fill="#000000" stroke="none" d="M730 442 c-19 -8 -45 -19 -58 -25 -28
-13 -82 -99 -82 -130 1 -12 19 -40 40 -62 22 -22 40 -46 40 -52 0 -7 5 -13 10
-13 6 0 10 6 10 14 0 9 12 16 32 18 30 3 33 7 40 45 4 23 12 51 18 62 5 11 13
47 16 79 6 52 4 61 -12 70 -13 7 -29 5 -54 -6z"/>
<path fill="#000000" stroke="none" d="M525 420 c3 -5 8 -10 11 -10 2 0 4 5 4
10 0 6 -5 10 -11 10 -5 0 -7 -4 -4 -10z"/>
<path fill="#000000" stroke="none" d="M393 189 c-90 -52 -138 -128 -100 -156
26 -20 85 -30 172 -28 111 2 125 7 151 48 19 29 20 35 8 52 -18 25 -18 55 1
55 26 0 16 14 -25 34 -28 14 -43 16 -52 8 -9 -7 -20 -6 -38 3 -37 21 -59 18
-117 -16z"/>
</g>
</svg>
