<?xml version="1.0" standalone="no"?>
<!DOCTYPE svg PUBLIC "-//W3C//DTD SVG 20010904//EN"
 "http://www.w3.org/TR/2001/REC-SVG-20010904/DTD/svg10.dtd">
<svg version="1.0" xmlns="http://www.w3.org/2000/svg"
 width="56.000000pt" height="105.000000pt" viewBox="0 0 56.000000 105.000000"
 preserveAspectRatio="xMidYMid meet">
<metadata>
Created by potrace 1.16, written by Peter Selinger 2001-2019
</metadata>
<g transform="translate(0.000000,105.000000) scale(0.100000,-0.100000)"
fill="#000000" stroke="none">
<path fill="#000000" stroke="none" d="M164 986 c-63 -65 -128 -193 -144 -285
-24 -132 -11 -265 32 -342 42 -75 130 -93 193 -38 l35 31 31 -26 c22 -19 42
-26 72 -26 61 0 89 18 118 77 90 176 38 528 -93 638 -34 29 -64 32 -88 10 -15
-14 -18 -14 -30 0 -27 32 -71 18 -126 -39z"/>
<path fill="#ffffff" stroke="none" d="M315 765 c-3 -27 -12 -61 -20 -75 -13
-23 -14 -17 -15 67 0 53 5 104 12 119 l13 27 8 -44 c4 -24 5 -66 2 -94z"/>
<path fill="#000000" stroke="none" d="M40 115 c0 -14 9 -44 21 -66 18 -36 24
-40 51 -37 17 2 33 8 35 14 2 6 -14 31 -37 55 -22 24 -40 47 -40 51 0 4 -7 8
-15 8 -9 0 -15 -9 -15 -25z"/>
<path fill="#000000" stroke="none" d="M440 90 c-19 -20 -41 -39 -49 -42 -26
-8 -4 -38 28 -38 32 0 57 30 67 79 9 42 -7 43 -46 1z"/>
</g>
</svg>
