<?xml version="1.0" standalone="no"?>
<!DOCTYPE svg PUBLIC "-//W3C//DTD SVG 20010904//EN"
 "http://www.w3.org/TR/2001/REC-SVG-20010904/DTD/svg10.dtd">
<svg version="1.0" xmlns="http://www.w3.org/2000/svg"
 width="89.000000pt" height="101.000000pt" viewBox="0 0 89.000000 101.000000"
 preserveAspectRatio="xMidYMid meet">
<metadata>
Created by potrace 1.16, written by Peter Selinger 2001-2019
</metadata>
<g transform="translate(0.000000,101.000000) scale(0.100000,-0.100000)"
fill="#000000" stroke="none">
<path fill="#000000" stroke="none" d="M196 991 c-9 -15 13 -63 27 -58 19 6
15 61 -5 65 -9 2 -19 -1 -22 -7z"/>
<path fill="#000000" stroke="none" d="M556 964 c-11 -29 -7 -64 9 -64 17 0
35 30 35 59 0 25 -35 29 -44 5z"/>
<path fill="#000000" stroke="none" d="M10 791 c0 -39 9 -61 26 -61 15 0 17
12 8 59 -8 40 -34 41 -34 2z"/>
<path fill="#000000" stroke="none" d="M242 813 c-18 -7 -52 -87 -52 -123 0
-37 34 -86 75 -107 17 -9 36 -24 43 -34 22 -32 32 -21 25 26 -3 29 -1 55 6 68
10 19 8 33 -18 89 -29 65 -53 90 -79 81z"/>
<path fill="#000000" stroke="none" d="M523 802 c-27 -21 -53 -81 -53 -122 0
-17 10 -44 22 -61 14 -18 22 -43 21 -65 -1 -29 1 -33 13 -23 8 6 14 19 14 28
0 10 13 32 29 50 41 45 52 115 30 180 -13 36 -41 41 -76 13z"/>
<path fill="#000000" stroke="none" d="M840 781 c-15 -29 -12 -41 9 -41 19 0
31 18 31 46 0 21 -28 17 -40 -5z"/>
<path fill="#000000" stroke="none" d="M728 622 c-57 -57 -58 -59 -58 -114 0
-40 5 -62 17 -73 15 -15 18 -15 28 -2 5 8 25 23 43 34 46 28 82 81 82 118 0
48 -19 95 -38 95 -10 -1 -43 -27 -74 -58z"/>
<path fill="#000000" stroke="none" d="M42 623 c-33 -65 -17 -159 31 -175 18
-7 27 -17 27 -32 0 -13 9 -31 20 -41 27 -24 44 -8 43 40 -1 19 3 38 8 41 15 9
10 38 -16 90 -43 87 -91 119 -113 77z"/>
<path fill="#000000" stroke="none" d="M367 326 c-18 -18 -55 -58 -84 -88 -69
-72 -79 -119 -39 -173 12 -17 25 -20 93 -18 43 1 96 2 118 2 32 1 45 -5 62
-26 22 -27 23 -27 80 -15 67 14 82 26 89 74 5 26 0 49 -17 82 -12 25 -26 46
-29 46 -17 0 -69 62 -80 94 -15 46 -34 56 -105 56 -52 0 -60 -3 -88 -34z"/>
</g>
</svg>
