<?xml version="1.0" standalone="no"?>
<!DOCTYPE svg PUBLIC "-//W3C//DTD SVG 20010904//EN"
 "http://www.w3.org/TR/2001/REC-SVG-20010904/DTD/svg10.dtd">
<svg version="1.0" xmlns="http://www.w3.org/2000/svg"
 width="71.000000pt" height="95.000000pt" viewBox="0 0 71.000000 95.000000"
 preserveAspectRatio="xMidYMid meet">
<metadata>
Created by potrace 1.16, written by Peter Selinger 2001-2019
</metadata>
<g transform="translate(0.000000,95.000000) scale(0.100000,-0.100000)"
fill="#000000" stroke="none">
<path fill="#000000" stroke="none" d="M426 883 c21 -136 10 -255 -42 -483
-13 -58 -25 -114 -27 -125 -2 -11 -7 5 -11 35 -4 30 -17 93 -28 139 -18 72
-20 101 -14 207 3 69 13 156 21 195 18 85 18 79 1 79 -24 0 -106 -81 -155
-154 -91 -135 -133 -241 -151 -378 -24 -184 48 -358 162 -389 30 -8 44 -6 68
6 33 17 76 91 94 164 l12 43 13 -51 c10 -38 25 -65 61 -101 42 -44 54 -50 89
-50 83 0 120 32 158 135 66 176 -13 504 -169 710 -29 38 -61 71 -72 73 -17 4
-18 0 -10 -55z"/>
</g>
</svg>
