<?xml version="1.0" standalone="no"?>
<!DOCTYPE svg PUBLIC "-//W3C//DTD SVG 20010904//EN"
 "http://www.w3.org/TR/2001/REC-SVG-20010904/DTD/svg10.dtd">
<svg version="1.0" xmlns="http://www.w3.org/2000/svg"
 width="767.952000pt" height="767.952000pt" viewBox="0 0 767.952000 767.952000"
 preserveAspectRatio="xMidYMid meet">
<metadata>
Created by potrace 1.16, written by Peter Selinger 2001-2019
</metadata>
<g transform="translate(23.976000,743.976000) scale(0.878049,-0.878049)"
fill="#000000" stroke="none">
<path fill="#000000" stroke="none" d="M498 803 c-21 -23 -26 -108 -14 -243 7
-80 5 -111 -13 -194 -25 -118 -26 -175 -6 -243 35 -118 137 -138 235 -47 58
53 81 110 87 207 9 145 -32 297 -115 425 -59 91 -139 134 -174 95z"/>
<path fill="#000000" stroke="none" d="M300 798 c-140 -39 -260 -254 -260
-463 0 -202 78 -325 207 -325 56 0 105 26 127 67 29 58 29 94 -4 234 -29 121
-31 144 -25 229 3 52 10 115 16 140 19 89 22 120 11 120 -6 0 -16 2 -24 4 -7
2 -29 0 -48 -6z"/>
</g>
</svg>
