<?xml version="1.0" standalone="no"?>
<!DOCTYPE svg PUBLIC "-//W3C//DTD SVG 20010904//EN"
 "http://www.w3.org/TR/2001/REC-SVG-20010904/DTD/svg10.dtd">
<svg version="1.0" xmlns="http://www.w3.org/2000/svg"
 width="767.952000pt" height="767.952000pt" viewBox="0 0 767.952000 767.952000"
 preserveAspectRatio="xMidYMid meet">
<metadata>
Created by potrace 1.16, written by Peter Selinger 2001-2019
</metadata>
<g transform="translate(23.976000,743.976000) scale(0.857143,-0.857143)"
fill="#000000" stroke="none">
<path fill="#000000" stroke="none" d="M257 809 c-26 -15 -68 -86 -73 -123 -9
-71 -7 -85 16 -120 76 -111 208 -3 180 146 -15 78 -75 126 -123 97z"/>
<path fill="#000000" stroke="none" d="M482 794 c-50 -35 -68 -136 -38 -209
15 -36 59 -65 98 -65 82 0 127 131 76 222 -35 62 -91 84 -136 52z"/>
<path fill="#000000" stroke="none" d="M51 555 c-46 -53 -57 -108 -35 -174 10
-30 25 -63 34 -73 32 -41 116 -16 148 43 17 32 10 141 -12 174 -18 27 -72 65
-92 65 -7 0 -26 -16 -43 -35z"/>
<path fill="#000000" stroke="none" d="M731 572 c-58 -9 -101 -72 -101 -147 0
-51 29 -115 56 -125 32 -13 93 10 119 44 29 39 29 164 0 196 -26 29 -45 37
-74 32z"/>
<path fill="#000000" stroke="none" d="M329 413 c-15 -9 -46 -47 -70 -85 -24
-38 -62 -96 -83 -130 -48 -73 -51 -111 -12 -145 30 -25 76 -30 122 -13 20 8
36 7 58 -2 39 -16 139 -17 157 -1 10 8 20 9 29 3 41 -26 143 2 156 42 15 48 4
91 -35 138 -21 25 -55 78 -75 118 -43 86 -71 103 -124 78 -30 -15 -36 -15 -55
-1 -27 19 -35 19 -68 -2z"/>
</g>
</svg>
