<?xml version="1.0" standalone="no"?>
<!DOCTYPE svg PUBLIC "-//W3C//DTD SVG 20010904//EN"
 "http://www.w3.org/TR/2001/REC-SVG-20010904/DTD/svg10.dtd">
<svg version="1.0" xmlns="http://www.w3.org/2000/svg"
 width="767.952000pt" height="767.952000pt" viewBox="0 0 767.952000 767.952000"
 preserveAspectRatio="xMidYMid meet">
<metadata>
Created by potrace 1.16, written by Peter Selinger 2001-2019
</metadata>
<g transform="translate(23.976000,743.976000) scale(0.878049,-0.878049)"
fill="#000000" stroke="none">
<path fill="#000000" stroke="none" d="M387 788 c-2 -7 -1 -21 2 -30 5 -14 8
-15 25 -3 16 12 17 17 6 30 -15 18 -26 19 -33 3z"/>
<path fill="#000000" stroke="none" d="M251 761 c-8 -15 -7 -20 5 -25 27 -10
34 -7 34 19 0 30 -25 34 -39 6z"/>
<path fill="#000000" stroke="none" d="M408 730 c-40 -25 -48 -162 -12 -217
24 -37 78 -28 131 20 44 40 39 129 -11 176 -27 25 -83 36 -108 21z"/>
<path fill="#000000" stroke="none" d="M207 699 c-23 -14 -47 -73 -47 -119 0
-75 89 -121 136 -69 23 26 31 133 12 169 -15 28 -69 38 -101 19z"/>
<path fill="#000000" stroke="none" d="M660 616 c0 -19 4 -23 19 -19 21 5 18
28 -5 37 -10 4 -14 -2 -14 -18z"/>
<path fill="#000000" stroke="none" d="M56 535 c-10 -28 -7 -35 19 -35 21 0
23 3 16 22 -10 28 -27 34 -35 13z"/>
<path fill="#000000" stroke="none" d="M620 530 c-31 -31 -62 -105 -55 -132 7
-28 62 -68 94 -68 65 0 118 69 106 140 -8 48 -32 70 -83 77 -32 4 -44 1 -62
-17z"/>
<path fill="#000000" stroke="none" d="M39 461 c-25 -25 -29 -37 -29 -83 0
-71 7 -93 35 -108 31 -17 71 -6 106 30 48 47 35 139 -26 182 -22 16 -58 7 -86
-21z"/>
<path fill="#000000" stroke="none" d="M286 377 c-12 -9 -19 -28 -20 -58 -1
-44 -27 -99 -46 -99 -5 0 -14 -9 -20 -21 -9 -16 -8 -26 5 -45 19 -30 60 -32
91 -3 31 29 110 18 126 -17 6 -13 19 -26 30 -30 10 -3 25 -19 34 -35 28 -55
83 -58 118 -7 25 36 20 76 -14 108 -16 15 -30 32 -30 37 0 6 -10 18 -21 29
-12 10 -34 46 -49 80 -15 34 -35 64 -45 68 -30 11 -140 7 -159 -7z"/>
<path fill="#000000" stroke="none" d="M790 274 c-9 -10 -10 -18 -2 -26 12
-12 32 -2 32 17 0 21 -16 26 -30 9z"/>
<path fill="#000000" stroke="none" d="M713 230 c-29 -12 -43 -40 -43 -88 0
-45 10 -52 71 -52 50 0 79 27 79 74 0 25 -7 40 -26 55 -29 23 -46 25 -81 11z"/>
</g>
</svg>
