<?xml version="1.0" standalone="no"?>
<!DOCTYPE svg PUBLIC "-//W3C//DTD SVG 20010904//EN"
 "http://www.w3.org/TR/2001/REC-SVG-20010904/DTD/svg10.dtd">
<svg version="1.0" xmlns="http://www.w3.org/2000/svg"
 width="767.952000pt" height="767.952000pt" viewBox="0 0 767.952000 767.952000"
 preserveAspectRatio="xMidYMid meet">
<metadata>
Created by potrace 1.16, written by Peter Selinger 2001-2019
</metadata>
<g transform="translate(23.976000,743.976000) scale(0.782609,-0.782609)"
fill="#000000" stroke="none">
<path fill="#000000" stroke="none" d="M540 901 c0 -4 -13 -22 -30 -39 -23
-25 -30 -41 -30 -73 0 -52 21 -169 30 -169 10 0 70 162 70 188 0 30 -23 102
-32 102 -5 0 -8 -4 -8 -9z"/>
<path fill="#000000" stroke="none" d="M320 834 c-11 -26 -20 -58 -19 -73 1
-41 33 -144 45 -148 12 -4 54 114 54 151 0 12 -9 35 -20 51 -11 17 -20 38 -20
48 0 31 -19 18 -40 -29z"/>
<path fill="#000000" stroke="none" d="M708 707 c-39 -23 -61 -60 -81 -141
-16 -63 -48 -79 -74 -38 -37 57 -58 63 -100 28 -26 -22 -31 -23 -53 -10 -14 7
-32 13 -41 14 -25 0 -68 -49 -75 -86 -6 -34 -19 -44 -27 -21 -2 6 -2 35 0 62
5 43 2 55 -19 80 -14 17 -27 38 -31 48 -9 25 -27 21 -27 -7 0 -13 -7 -40 -15
-60 -14 -32 -14 -40 0 -73 9 -21 23 -44 32 -51 15 -11 16 -16 4 -45 -23 -57
-24 -79 -6 -113 13 -24 29 -37 54 -44 74 -20 101 -8 101 45 l0 32 47 -7 c29
-5 57 -3 72 4 19 8 25 8 29 -2 8 -26 34 -43 56 -36 46 14 76 86 76 183 0 37 4
51 14 51 14 0 62 50 91 94 15 23 29 117 17 115 -4 -1 -24 -11 -44 -22z"/>
<path fill="#000000" stroke="none" d="M236 198 c-9 -13 -16 -43 -16 -71 0
-60 31 -97 83 -97 66 0 73 35 25 128 -35 69 -64 81 -92 40z"/>
<path fill="#000000" stroke="none" d="M476 163 c-67 -68 -73 -105 -20 -139
32 -22 129 -23 149 -3 39 40 10 136 -51 171 l-32 18 -46 -47z"/>
</g>
</svg>
