<?xml version="1.0" standalone="no"?>
<!DOCTYPE svg PUBLIC "-//W3C//DTD SVG 20010904//EN"
 "http://www.w3.org/TR/2001/REC-SVG-20010904/DTD/svg10.dtd">
<svg version="1.0" xmlns="http://www.w3.org/2000/svg"
 width="767.952000pt" height="767.952000pt" viewBox="0 0 767.952000 767.952000"
 preserveAspectRatio="xMidYMid meet">
<metadata>
Created by potrace 1.16, written by Peter Selinger 2001-2019
</metadata>
<g transform="translate(23.976000,743.976000) scale(0.742268,-0.742268)"
fill="#000000" stroke="none">
<path fill="#000000" stroke="none" d="M651 858 c-13 -29 -33 -71 -44 -93 -14
-26 -22 -64 -24 -115 -4 -83 5 -111 49 -143 25 -18 32 -19 68 -8 52 15 70 53
70 147 0 61 -7 97 -43 219 -19 62 -47 60 -76 -7z"/>
<path fill="#000000" stroke="none" d="M333 863 c-8 -21 -20 -78 -25 -127 -12
-105 -2 -153 40 -191 88 -82 184 68 121 190 -90 177 -108 194 -136 128z"/>
<path fill="#000000" stroke="none" d="M45 613 c-3 -15 -6 -57 -6 -95 0 -91
29 -157 80 -186 80 -45 131 -20 131 62 0 58 -7 72 -77 147 -31 33 -63 69 -70
79 -20 29 -50 25 -58 -7z"/>
<path fill="#000000" stroke="none" d="M887 608 c-8 -13 -27 -45 -42 -73 -15
-27 -48 -72 -73 -98 -41 -45 -44 -52 -39 -89 7 -51 24 -68 75 -75 68 -9 105
26 138 136 16 53 18 158 4 195 -12 33 -45 34 -63 4z"/>
<path fill="#000000" stroke="none" d="M434 463 c-13 -16 -56 -66 -96 -111
-40 -46 -79 -94 -85 -105 -30 -52 0 -134 57 -157 35 -15 115 -8 180 15 33 12
55 13 102 5 99 -15 134 13 126 100 -4 39 -11 53 -41 79 -19 17 -56 65 -81 105
-34 55 -55 77 -78 85 -46 16 -58 14 -84 -16z"/>
<path fill="#000000" stroke="none" d="M13 220 c7 -57 45 -130 74 -143 22 -10
28 -8 44 12 23 28 24 41 5 41 -8 0 -16 6 -19 13 -3 9 -7 9 -19 -1 -13 -10 -17
-10 -22 4 -3 8 -3 26 0 40 6 23 15 28 42 25 6 -1 20 3 30 8 14 8 10 10 -21 11
-21 0 -54 7 -74 15 -19 8 -38 15 -41 15 -2 0 -2 -18 1 -40z"/>
</g>
</svg>
