<?xml version="1.0" standalone="no"?>
<!DOCTYPE svg PUBLIC "-//W3C//DTD SVG 20010904//EN"
 "http://www.w3.org/TR/2001/REC-SVG-20010904/DTD/svg10.dtd">
<svg version="1.0" xmlns="http://www.w3.org/2000/svg"
 width="70.000000pt" height="91.000000pt" viewBox="0 0 70.000000 91.000000"
 preserveAspectRatio="xMidYMid meet">
<metadata>
Created by potrace 1.16, written by Peter Selinger 2001-2019
</metadata>
<g transform="translate(0.000000,91.000000) scale(0.100000,-0.100000)"
fill="#000000" stroke="none">
<path fill="#000000" stroke="none" d="M304 902 c-6 -4 -16 -17 -22 -28 -10
-20 -9 -22 18 -26 28 -4 30 -2 30 29 0 33 -6 39 -26 25z"/>
<path fill="#000000" stroke="none" d="M397 898 c-9 -27 4 -45 29 -40 29 5 30
13 6 35 -22 20 -29 21 -35 5z"/>
<path fill="#000000" stroke="none" d="M228 805 c-86 -47 -91 -200 -8 -235 67
-28 120 27 120 125 0 71 -9 94 -41 110 -34 18 -37 18 -71 0z"/>
<path fill="#000000" stroke="none" d="M452 802 c-38 -6 -65 -73 -60 -153 6
-102 38 -129 115 -92 40 19 73 66 73 104 0 30 -55 116 -85 134 -11 6 -30 10
-43 7z"/>
<path fill="#000000" stroke="none" d="M82 668 c-20 -20 -15 -47 7 -41 21 5
35 29 25 44 -7 12 -18 11 -32 -3z"/>
<path fill="#000000" stroke="none" d="M631 591 c-9 -16 -7 -24 11 -41 28 -26
44 -12 31 26 -12 35 -29 41 -42 15z"/>
<path fill="#000000" stroke="none" d="M39 561 c-39 -40 -41 -114 -4 -177 44
-76 94 -85 150 -28 55 55 60 78 30 129 -46 80 -73 105 -112 105 -25 0 -43 -8
-64 -29z"/>
<path fill="#000000" stroke="none" d="M543 505 c-36 -29 -73 -84 -73 -110 0
-30 79 -115 107 -115 76 0 141 117 109 195 -25 60 -88 73 -143 30z"/>
<path fill="#000000" stroke="none" d="M283 398 c-6 -7 -25 -41 -43 -76 -18
-34 -48 -76 -66 -91 -56 -50 -67 -91 -40 -156 24 -57 56 -66 214 -63 136 2
137 2 164 31 35 37 45 85 24 125 -9 17 -19 32 -23 34 -16 6 -65 80 -85 126
-30 69 -45 82 -93 82 -24 0 -47 -6 -52 -12z"/>
</g>
</svg>
