<?xml version="1.0" standalone="no"?>
<!DOCTYPE svg PUBLIC "-//W3C//DTD SVG 20010904//EN"
 "http://www.w3.org/TR/2001/REC-SVG-20010904/DTD/svg10.dtd">
<svg version="1.0" xmlns="http://www.w3.org/2000/svg"
 width="767.952000pt" height="767.952000pt" viewBox="0 0 767.952000 767.952000"
 preserveAspectRatio="xMidYMid meet">
<metadata>
Created by potrace 1.16, written by Peter Selinger 2001-2019
</metadata>
<g transform="translate(23.976000,743.976000) scale(0.648649,-0.648649)"
fill="#000000" stroke="none">
<path fill="#000000" stroke="none" d="M447 1033 c-9 -42 -15 -78 -13 -80 2
-2 15 -1 30 3 20 5 26 12 26 34 0 45 -12 120 -20 120 -3 0 -14 -35 -23 -77z"/>
<path fill="#000000" stroke="none" d="M640 1021 c0 -33 -3 -66 -6 -75 -5 -12
0 -16 20 -16 18 0 26 5 26 17 0 33 -24 133 -32 133 -4 0 -8 -27 -8 -59z"/>
<path fill="#000000" stroke="none" d="M257 998 c-8 -18 -18 -50 -22 -70 -7
-36 -6 -38 18 -38 21 0 25 5 31 46 13 97 2 123 -27 62z"/>
<path fill="#000000" stroke="none" d="M797 999 c-4 -13 -7 -50 -7 -81 0 -53
2 -58 21 -58 20 0 21 4 17 64 -3 35 -10 71 -15 81 -9 16 -11 15 -16 -6z"/>
<path fill="#000000" stroke="none" d="M930 853 c0 -10 -3 -42 -6 -70 -7 -52
-6 -53 20 -53 24 0 26 3 26 45 0 45 -17 95 -32 95 -4 0 -8 -8 -8 -17z"/>
<path fill="#000000" stroke="none" d="M194 722 c-32 -25 -44 -55 -44 -107 0
-87 43 -125 124 -110 26 5 41 16 57 42 20 32 23 33 32 17 31 -60 113 -60 144
0 9 17 12 16 29 -13 15 -25 25 -31 54 -31 41 0 53 7 69 37 31 59 -4 143 -60
143 -30 0 -69 -30 -69 -52 0 -7 -9 1 -20 19 -10 17 -28 37 -40 43 -32 17 -79
2 -99 -31 l-18 -30 -13 31 c-7 17 -22 37 -34 45 -28 20 -86 18 -112 -3z"/>
<path fill="#000000" stroke="none" d="M727 673 c-40 -11 -60 -99 -31 -141 26
-37 96 -24 114 21 8 20 9 19 9 -10 1 -23 7 -33 21 -38 11 -3 20 -11 20 -16 0
-15 47 -10 64 7 40 39 30 110 -18 133 -25 12 -31 11 -56 -8 l-28 -20 -11 29
c-6 18 -21 34 -36 40 -15 6 -27 9 -28 9 -1 -1 -10 -3 -20 -6z"/>
<path fill="#000000" stroke="none" d="M350 491 c-81 -26 -111 -44 -161 -98
-56 -60 -72 -105 -67 -187 5 -77 40 -152 88 -184 60 -40 127 -24 208 52 66 62
88 68 222 65 242 -5 253 -3 312 56 48 48 47 136 -3 199 -23 30 -88 66 -117 66
-11 0 -25 6 -31 14 -18 21 -71 28 -241 31 -127 3 -165 0 -210 -14z"/>
</g>
</svg>
