<?xml version="1.0" standalone="no"?>
<!DOCTYPE svg PUBLIC "-//W3C//DTD SVG 20010904//EN"
 "http://www.w3.org/TR/2001/REC-SVG-20010904/DTD/svg10.dtd">
<svg version="1.0" xmlns="http://www.w3.org/2000/svg"
 width="767.952000pt" height="767.952000pt" viewBox="0 0 767.952000 767.952000"
 preserveAspectRatio="xMidYMid meet">
<metadata>
Created by potrace 1.16, written by Peter Selinger 2001-2019
</metadata>
<g transform="translate(23.976000,743.976000) scale(0.447205,-0.447205)"
fill="#000000" stroke="none">
<path fill="#000000" stroke="none" d="M689 1605 c-4 -5 -10 -40 -14 -77 -6
-64 -5 -68 14 -68 19 0 21 6 20 48 -2 59 -12 110 -20 97z"/>
<path fill="#000000" stroke="none" d="M856 1563 c-3 -21 -6 -55 -6 -75 0 -32
3 -38 21 -38 20 0 21 4 15 46 -3 26 -6 60 -6 75 0 42 -16 36 -24 -8z"/>
<path fill="#000000" stroke="none" d="M471 1535 c-27 -72 -27 -95 -1 -95 11
0 22 6 24 13 10 31 15 137 7 137 -5 0 -19 -25 -30 -55z"/>
<path fill="#000000" stroke="none" d="M1016 1503 c-11 -72 -8 -93 15 -93 19
0 21 4 15 38 -3 20 -6 49 -6 65 0 40 -16 33 -24 -10z"/>
<path fill="#000000" stroke="none" d="M1160 1423 c0 -10 -3 -35 -6 -55 -6
-35 -5 -38 16 -38 20 0 22 4 16 31 -3 17 -6 42 -6 55 0 13 -4 24 -10 24 -5 0
-10 -8 -10 -17z"/>
<path fill="#000000" stroke="none" d="M447 1349 c-63 -37 -62 -194 2 -229 55
-29 125 6 137 68 l6 28 33 -33 c49 -49 98 -42 135 20 16 26 20 28 20 12 0 -11
7 -31 16 -43 30 -43 124 -17 124 36 0 9 9 -1 19 -24 20 -44 48 -58 86 -44 13
5 28 17 34 27 10 17 10 17 11 -2 0 -37 28 -65 65 -65 47 0 75 32 75 85 0 55
-22 85 -63 85 -37 0 -49 -7 -65 -35 -10 -18 -11 -17 -12 10 0 46 -25 75 -64
75 -34 0 -65 -24 -67 -51 0 -8 -5 0 -11 16 -15 44 -38 65 -67 65 -37 0 -69
-25 -80 -63 l-9 -32 -1 28 c-1 41 -42 77 -86 77 -44 0 -85 -36 -86 -77 l-1
-28 -8 29 c-14 47 -49 76 -89 76 -20 0 -44 -5 -54 -11z"/>
<path fill="#000000" stroke="none" d="M616 1120 c-74 -12 -143 -46 -170 -83
-34 -46 -34 -146 -1 -238 62 -171 75 -235 100 -496 11 -124 19 -161 39 -201
61 -121 206 -129 304 -17 52 59 212 461 262 655 40 157 36 253 -12 297 -35 33
-98 62 -157 73 -79 15 -296 21 -365 10z"/>
</g>
</svg>
