<?xml version="1.0" standalone="no"?>
<!DOCTYPE svg PUBLIC "-//W3C//DTD SVG 20010904//EN"
 "http://www.w3.org/TR/2001/REC-SVG-20010904/DTD/svg10.dtd">
<svg version="1.0" xmlns="http://www.w3.org/2000/svg"
 width="418.000000pt" height="424.000000pt" viewBox="0 0 418.000000 424.000000"
 preserveAspectRatio="xMidYMid meet">
<metadata>
Created by potrace 1.16, written by Peter Selinger 2001-2019
</metadata>
<g transform="translate(0.000000,424.000000) scale(0.100000,-0.100000)"
fill="#000000" stroke="none">
<path fill="#000000" stroke="none" d="M1212 4230 c-24 -5 -59 -19 -77 -30
-46 -28 -108 -101 -133 -153 -33 -71 -64 -250 -69 -397 -5 -120 -2 -148 21
-255 54 -242 135 -345 319 -405 57 -18 85 -22 167 -18 88 3 104 7 173 41 173
86 217 219 179 542 -22 186 -65 301 -169 457 -110 164 -267 248 -411 218z"/>
<path fill="#000000" stroke="none" d="M2495 4107 c-102 -41 -170 -123 -213
-257 -25 -79 -27 -97 -26 -250 1 -191 13 -272 61 -391 61 -155 169 -257 303
-285 157 -33 281 6 402 126 73 73 92 115 103 237 14 149 -49 402 -136 550 -90
152 -260 272 -396 279 -39 2 -81 -1 -98 -9z"/>
<path fill="#000000" stroke="none" d="M203 3065 c-28 -14 -63 -42 -78 -61
-68 -90 -115 -264 -115 -431 0 -250 141 -554 295 -636 33 -18 56 -22 135 -21
166 1 264 53 338 181 62 107 77 162 76 283 0 156 -29 239 -143 409 -162 245
-359 352 -508 276z"/>
<path fill="#000000" stroke="none" d="M3631 3000 c-117 -24 -187 -118 -249
-332 -25 -88 -27 -105 -26 -293 0 -187 2 -205 26 -278 63 -188 220 -292 404
-266 190 27 325 144 370 319 30 118 -2 291 -93 499 -57 131 -78 166 -150 239
-99 100 -180 132 -282 112z"/>
<path fill="#000000" stroke="none" d="M1750 2234 c-238 -42 -266 -75 -411
-474 -50 -136 -102 -250 -175 -382 -30 -53 -70 -141 -90 -195 -19 -54 -46
-123 -60 -153 -35 -81 -124 -376 -124 -414 0 -149 190 -436 335 -507 43 -21
64 -24 150 -24 l100 0 108 53 c59 29 135 70 168 92 l61 40 62 -56 c67 -61 170
-116 261 -139 164 -42 347 8 482 130 l62 56 34 -53 c89 -138 240 -218 387
-204 119 11 167 31 235 99 60 61 125 148 160 217 24 47 83 252 91 315 11 90
-47 262 -121 360 -12 17 -36 57 -53 90 -61 120 -123 223 -279 466 -28 45 -79
142 -113 218 -84 184 -106 227 -151 288 -72 97 -160 141 -298 150 -108 7 -188
-13 -286 -69 -96 -55 -120 -58 -170 -18 -72 58 -191 109 -270 114 -38 2 -81 2
-95 0z"/>
</g>
</svg>
