<?xml version="1.0" standalone="no"?>
<!DOCTYPE svg PUBLIC "-//W3C//DTD SVG 20010904//EN"
 "http://www.w3.org/TR/2001/REC-SVG-20010904/DTD/svg10.dtd">
<svg version="1.0" xmlns="http://www.w3.org/2000/svg"
 width="509.000000pt" height="443.000000pt" viewBox="0 0 509.000000 443.000000"
 preserveAspectRatio="xMidYMid meet">
<metadata>
Created by potrace 1.16, written by Peter Selinger 2001-2019
</metadata>
<g transform="translate(0.000000,443.000000) scale(0.100000,-0.100000)"
fill="#000000" stroke="none">
<path fill="#000000" stroke="none" d="M1592 4411 c-29 -10 -70 -32 -90 -48
-104 -83 -230 -296 -251 -423 -30 -187 -21 -508 18 -595 27 -61 140 -176 208
-212 83 -44 194 -66 307 -61 80 3 102 8 159 36 139 69 225 192 249 360 25 172
-25 471 -107 632 -51 100 -158 232 -218 268 -104 63 -182 75 -275 43z"/>
<path fill="#000000" stroke="none" d="M3145 4301 c-153 -40 -277 -212 -322
-446 -18 -96 -20 -433 -3 -509 21 -91 103 -246 161 -303 88 -89 117 -98 299
-97 165 1 227 14 315 66 47 27 109 121 136 207 33 101 37 296 10 426 -30 148
-75 296 -107 357 -44 82 -195 228 -275 267 -71 35 -157 47 -214 32z"/>
<path fill="#000000" stroke="none" d="M4608 2930 c-162 -49 -282 -215 -395
-547 -56 -166 -61 -237 -24 -371 38 -135 146 -280 238 -318 117 -49 305 -56
400 -15 96 42 174 147 219 292 22 73 26 108 31 269 9 286 -14 392 -114 543
-47 71 -104 118 -174 142 -44 16 -137 18 -181 5z"/>
<path fill="#000000" stroke="none" d="M335 2886 c-62 -20 -98 -41 -140 -85
-131 -134 -192 -336 -183 -596 5 -114 9 -140 36 -214 38 -101 78 -166 138
-221 71 -65 121 -83 244 -88 164 -6 279 28 355 103 49 50 71 98 91 201 20 108
15 300 -10 414 -32 142 -162 367 -251 435 -77 58 -192 79 -280 51z"/>
<path fill="#000000" stroke="none" d="M2194 2382 c-79 -24 -146 -63 -213
-126 -99 -94 -174 -227 -307 -551 -41 -99 -88 -202 -105 -230 -67 -108 -158
-224 -236 -301 -102 -100 -130 -155 -146 -290 -16 -139 0 -252 51 -358 45 -93
211 -301 292 -365 154 -121 319 -140 488 -55 70 35 124 82 230 202 41 47 71
72 85 72 11 0 62 -27 112 -59 54 -36 122 -71 170 -87 74 -24 89 -26 200 -21
123 6 152 12 314 69 l94 33 15 -25 c9 -14 47 -57 86 -95 96 -95 242 -171 359
-184 112 -13 202 1 300 47 72 34 95 52 190 151 122 127 176 203 206 293 41
121 51 328 21 430 -15 50 -93 168 -187 279 -43 52 -90 110 -103 129 -13 19
-46 59 -73 89 -82 92 -204 296 -333 561 -47 96 -101 198 -120 227 -130 196
-349 236 -617 112 -160 -74 -185 -80 -255 -62 -31 8 -88 32 -127 53 -131 72
-279 95 -391 62z"/>
</g>
</svg>
