<?xml version="1.0" standalone="no"?>
<!DOCTYPE svg PUBLIC "-//W3C//DTD SVG 20010904//EN"
 "http://www.w3.org/TR/2001/REC-SVG-20010904/DTD/svg10.dtd">
<svg version="1.0" xmlns="http://www.w3.org/2000/svg"
 width="767.952000pt" height="767.952000pt" viewBox="0 0 767.952000 767.952000"
 preserveAspectRatio="xMidYMid meet">
<metadata>
Created by potrace 1.16, written by Peter Selinger 2001-2019
</metadata>
<g transform="translate(23.976000,743.976000) scale(0.800000,-0.800000)"
fill="#000000" stroke="none">
<path fill="#000000" stroke="none" d="M524 859 c3 -17 6 -37 6 -43 0 -7 15
-12 34 -12 37 0 38 9 4 59 -27 39 -52 36 -44 -4z"/>
<path fill="#000000" stroke="none" d="M341 844 c-26 -33 -27 -53 -3 -52 9 0
26 -3 36 -7 17 -7 18 -5 13 16 -4 13 -7 34 -7 47 0 29 -14 28 -39 -4z"/>
<path fill="#000000" stroke="none" d="M324 738 c-60 -47 -92 -107 -80 -153 8
-31 54 -85 82 -95 35 -14 80 6 94 41 18 44 8 164 -17 197 -26 35 -43 37 -79
10z"/>
<path fill="#000000" stroke="none" d="M535 734 c-52 -52 -76 -192 -39 -228
36 -36 121 -8 148 49 35 74 -5 195 -64 195 -16 0 -36 -7 -45 -16z"/>
<path fill="#000000" stroke="none" d="M737 583 c-4 -3 -7 -19 -7 -34 0 -22 5
-27 30 -31 35 -5 34 -7 16 37 -15 34 -26 42 -39 28z"/>
<path fill="#000000" stroke="none" d="M146 558 c-23 -32 -20 -46 9 -44 20 1
25 6 25 28 0 36 -15 43 -34 16z"/>
<path fill="#000000" stroke="none" d="M116 471 c-31 -34 -39 -87 -21 -140 21
-63 46 -86 96 -86 33 0 46 8 89 50 27 27 50 56 50 65 0 23 -31 65 -74 99 -47
37 -112 43 -140 12z"/>
<path fill="#000000" stroke="none" d="M685 474 c-72 -38 -105 -67 -114 -101
-16 -56 -5 -67 108 -113 65 -26 90 -19 116 35 22 49 17 145 -10 175 -21 24
-59 25 -100 4z"/>
<path fill="#000000" stroke="none" d="M364 303 c-41 -46 -80 -87 -108 -112
-30 -27 -34 -66 -11 -111 25 -48 65 -69 128 -69 30 1 60 -2 65 -5 6 -3 29 1
52 9 23 8 54 15 67 15 33 0 83 51 83 85 0 16 -14 43 -32 65 -18 21 -42 56 -53
77 -30 58 -52 72 -113 73 -46 0 -57 -4 -78 -27z"/>
</g>
</svg>
