<?xml version="1.0" standalone="no"?>
<!DOCTYPE svg PUBLIC "-//W3C//DTD SVG 20010904//EN"
 "http://www.w3.org/TR/2001/REC-SVG-20010904/DTD/svg10.dtd">
<svg version="1.0" xmlns="http://www.w3.org/2000/svg"
 width="767.952000pt" height="767.952000pt" viewBox="0 0 767.952000 767.952000"
 preserveAspectRatio="xMidYMid meet">
<metadata>
Created by potrace 1.16, written by Peter Selinger 2001-2019
</metadata>
<g transform="translate(23.976000,743.976000) scale(0.774194,-0.774194)"
fill="#000000" stroke="none">
<path fill="#000000" stroke="none" d="M371 891 c-12 -16 -21 -34 -21 -40 0
-6 -3 -11 -7 -11 -9 0 -33 -48 -33 -66 0 -7 -8 -15 -17 -18 -46 -15 -65 -110
-42 -201 10 -43 19 -100 22 -150 2 -16 6 -36 10 -42 5 -7 6 -17 3 -22 -10 -16
25 -216 45 -258 15 -31 31 -47 66 -63 41 -19 50 -20 81 -8 27 10 41 26 67 78
53 104 132 375 140 478 4 53 -10 108 -29 115 -7 3 -16 20 -20 39 -3 18 -12 47
-20 63 -54 121 -68 133 -105 96 -28 -28 -42 -26 -70 9 -29 38 -44 38 -70 1z"/>
</g>
</svg>
