<?xml version="1.0" standalone="no"?>
<!DOCTYPE svg PUBLIC "-//W3C//DTD SVG 20010904//EN"
 "http://www.w3.org/TR/2001/REC-SVG-20010904/DTD/svg10.dtd">
<svg version="1.0" xmlns="http://www.w3.org/2000/svg"
 width="65.000000pt" height="97.000000pt" viewBox="0 0 65.000000 97.000000"
 preserveAspectRatio="xMidYMid meet">
<metadata>
Created by potrace 1.16, written by Peter Selinger 2001-2019
</metadata>
<g transform="translate(0.000000,97.000000) scale(0.100000,-0.100000)"
fill="#000000" stroke="none">
<path fill="#000000" stroke="none" d="M300 934 c-75 -64 -171 -233 -241 -427
-37 -100 -42 -124 -46 -229 -5 -106 -3 -121 17 -162 31 -65 90 -106 152 -106
61 0 100 20 128 65 12 19 23 35 26 35 2 0 11 -14 19 -30 48 -92 201 -93 262
-2 68 102 23 442 -87 663 -63 126 -113 195 -153 209 -41 14 -41 14 -77 -16z"/>
<path fill="#ffffff" stroke="none" d="M366 645 c-5 -179 -20 -312 -37 -330
-11 -10 -41 127 -46 210 -6 98 17 251 47 320 21 49 22 49 32 25 6 -15 8 -103
4 -225z"/>
</g>
</svg>
