<?xml version="1.0" encoding="UTF-8" standalone="no"?>
<svg
   xmlns:dc="http://purl.org/dc/elements/1.1/"
   xmlns:cc="http://creativecommons.org/ns#"
   xmlns:rdf="http://www.w3.org/1999/02/22-rdf-syntax-ns#"
   xmlns:svg="http://www.w3.org/2000/svg"
   xmlns="http://www.w3.org/2000/svg"
   xmlns:sodipodi="http://sodipodi.sourceforge.net/DTD/sodipodi-0.dtd"
   xmlns:inkscape="http://www.inkscape.org/namespaces/inkscape"
   inkscape:version="1.0rc1 (09960d6f05, 2020-04-09)"
   sodipodi:docname="deer-whitetail_outline.svg"
   id="svg10"
   preserveAspectRatio="xMidYMid meet"
   viewBox="0 0 767.952000 767.952000"
   height="767.952000pt"
   width="767.952000pt"
   version="1.0">
  <defs
     id="defs14" />
  <sodipodi:namedview
     inkscape:current-layer="g8"
     inkscape:cy="511.96802"
     inkscape:cx="511.96802"
     inkscape:zoom="0.94048844"
     showgrid="false"
     id="namedview12"
     inkscape:window-height="480"
     inkscape:window-width="640"
     inkscape:pageshadow="2"
     inkscape:pageopacity="0"
     guidetolerance="10"
     gridtolerance="10"
     objecttolerance="10"
     borderopacity="1"
     bordercolor="#666666"
     pagecolor="#ffffff" />
  <metadata
     id="metadata2">
Created by potrace 1.16, written by Peter Selinger 2001-2019
<rdf:RDF>
  <cc:Work
     rdf:about="">
    <dc:format>image/svg+xml</dc:format>
    <dc:type
       rdf:resource="http://purl.org/dc/dcmitype/StillImage" />
  </cc:Work>
</rdf:RDF>
</metadata>
  <g
     id="g8"
     stroke="none"
     fill="#000000"
     transform="matrix(0.742268,0,0,-0.742268,23.976,743.976)">
    <path
       inkscape:connector-curvature="0"
       transform="matrix(1.0104167,0,0,-1.0104167,-32.301002,1002.3011)"
       d="m 528.95898,42.796875 c -11.98498,0.0092 -20.57778,7.171916 -41.73242,24.800781 -74.2268,63.340204 -169.23727,230.597664 -238.51562,422.597654 -36.61856,98.96907 -41.56858,122.72115 -45.52735,226.63867 -4.94845,104.90722 -2.96764,119.75276 16.82618,160.33008 30.68041,64.3299 89.07081,104.90625 150.43164,104.90625 60.37113,0 98.9703,-19.79204 126.68164,-64.32812 11.87629,-18.80413 22.76335,-34.64063 25.73242,-34.64063 1.97938,0 10.88521,13.85636 18.80273,29.69141 47.50516,91.05153 198.9277,92.04033 259.29883,1.97851 C 868.256,813.82303 823.72145,477.32907 714.85547,258.60742 652.50495,133.90639 603.01927,65.617389 563.43164,51.761719 546.9471,46.132853 537.15924,42.790593 528.95898,42.796875 Z m 10.05079,72.611325 c 3.00486,0.15038 5.55555,5.87982 9.57617,15.5293 5.93814,14.84536 7.91774,101.93742 3.95898,222.67969 -4.94845,177.15463 -19.7944,308.78322 -36.61914,326.59765 -10.8866,9.89691 -40.57694,-125.68965 -45.52539,-207.83398 -5.93814,-96.98969 16.8249,-248.41251 46.51563,-316.70117 12.3402,-28.79382 17.70202,-40.49127 22.09375,-40.27149 z"
       style="stroke-width:0.989691"
       id="path4" />
  </g>
</svg>
