<?xml version="1.0" standalone="no"?>
<!DOCTYPE svg PUBLIC "-//W3C//DTD SVG 20010904//EN"
 "http://www.w3.org/TR/2001/REC-SVG-20010904/DTD/svg10.dtd">
<svg version="1.0" xmlns="http://www.w3.org/2000/svg"
 width="767.952000pt" height="767.952000pt" viewBox="0 0 767.952000 767.952000"
 preserveAspectRatio="xMidYMid meet">
<metadata>
Created by potrace 1.16, written by Peter Selinger 2001-2019
</metadata>
<g transform="translate(23.976000,743.976000) scale(0.818182,-0.818182)"
fill="#000000" stroke="none">
<path fill="#000000" stroke="none" d="M391 857 c-6 -16 -11 -75 -11 -133 0
-139 -15 -139 -69 1 -49 126 -56 132 -68 49 -3 -27 -12 -53 -19 -59 -7 -5 -16
-23 -19 -40 l-6 -30 15 33 c17 36 36 35 36 -2 0 -13 7 -43 15 -67 20 -56 13
-79 -16 -53 -12 11 -29 34 -38 53 -21 45 -35 44 -39 -2 -3 -30 8 -61 47 -141
39 -77 53 -119 60 -173 10 -77 13 -84 77 -184 69 -106 122 -132 178 -88 43 34
67 93 73 178 3 42 14 105 24 140 10 35 19 91 19 125 0 36 8 85 20 119 24 67
27 149 6 141 -7 -3 -19 -15 -25 -27 -35 -66 -58 -97 -72 -97 -15 0 -10 61 9
116 19 55 14 94 -12 94 -19 0 -25 -10 -56 -89 -14 -35 -30 -66 -36 -68 -7 -2
-14 16 -17 42 -9 63 -34 148 -52 171 -13 18 -14 18 -24 -9z"/>
</g>
</svg>
