<?xml version="1.0" standalone="no"?>
<!DOCTYPE svg PUBLIC "-//W3C//DTD SVG 20010904//EN"
 "http://www.w3.org/TR/2001/REC-SVG-20010904/DTD/svg10.dtd">
<svg version="1.0" xmlns="http://www.w3.org/2000/svg"
 width="81.000000pt" height="89.000000pt" viewBox="0 0 81.000000 89.000000"
 preserveAspectRatio="xMidYMid meet">
<metadata>
Created by potrace 1.16, written by Peter Selinger 2001-2019
</metadata>
<g transform="translate(0.000000,89.000000) scale(0.100000,-0.100000)"
fill="#000000" stroke="none">
<path fill="#000000" stroke="none" d="M144 834 c-44 -47 -87 -142 -120 -262
-24 -88 -28 -204 -11 -316 13 -84 21 -106 52 -151 25 -37 48 -58 76 -69 49
-20 111 -21 147 -2 37 19 89 75 101 109 22 58 10 163 -20 172 -14 5 -19 16
-19 42 0 28 -29 97 -55 131 -6 8 -34 -12 -28 -21 4 -6 -2 -8 -18 -4 -13 4 -27
7 -31 7 -3 0 -11 23 -17 51 -8 38 -8 55 0 65 14 17 46 18 52 2 3 -8 6 -6 6 4
1 10 -8 35 -19 56 -15 29 -18 45 -12 63 5 13 13 57 17 97 l7 72 -33 0 c-26 0
-41 -9 -75 -46z"/>
<path fill="#ffffff" stroke="none" d="M288 388 c2 -12 -3 -16 -17 -15 -13 1
-21 8 -21 20 0 23 33 19 38 -5z"/>
<path fill="#000000" stroke="none" d="M571 858 c-5 -14 -4 -47 2 -81 8 -43 7
-67 -1 -91 -15 -40 -16 -138 -2 -116 5 8 12 34 16 58 5 31 11 42 22 40 22 -4
40 -37 25 -46 -6 -4 -13 -34 -15 -67 l-3 -60 -39 -3 c-35 -3 -36 -5 -20 -17
13 -9 23 -10 31 -3 21 17 16 -64 -8 -135 -24 -73 -35 -87 -44 -58 -3 12 -13
21 -22 21 -12 0 -14 9 -8 50 5 35 3 50 -5 50 -20 0 -50 -86 -62 -175 -9 -76
-9 -90 7 -125 52 -115 199 -122 293 -16 44 51 57 104 56 231 -1 93 -8 134 -42
266 -43 168 -76 245 -118 278 -34 27 -52 27 -63 -1z"/>
</g>
</svg>
