<?xml version="1.0" encoding="UTF-8" standalone="no"?>
<svg
   xmlns:dc="http://purl.org/dc/elements/1.1/"
   xmlns:cc="http://creativecommons.org/ns#"
   xmlns:rdf="http://www.w3.org/1999/02/22-rdf-syntax-ns#"
   xmlns:svg="http://www.w3.org/2000/svg"
   xmlns="http://www.w3.org/2000/svg"
   xmlns:sodipodi="http://sodipodi.sourceforge.net/DTD/sodipodi-0.dtd"
   xmlns:inkscape="http://www.inkscape.org/namespaces/inkscape"
   inkscape:version="1.0rc1 (09960d6f05, 2020-04-09)"
   sodipodi:docname="goat-mountain_outline.svg"
   id="svg12"
   preserveAspectRatio="xMidYMid meet"
   viewBox="0 0 767.952000 767.952000"
   height="767.952000pt"
   width="767.952000pt"
   version="1.0">
  <defs
     id="defs16" />
  <sodipodi:namedview
     inkscape:current-layer="g10"
     inkscape:cy="511.96802"
     inkscape:cx="511.96802"
     inkscape:zoom="0.8516157"
     showgrid="false"
     id="namedview14"
     inkscape:window-height="480"
     inkscape:window-width="640"
     inkscape:pageshadow="2"
     inkscape:pageopacity="0"
     guidetolerance="10"
     gridtolerance="10"
     objecttolerance="10"
     borderopacity="1"
     bordercolor="#666666"
     pagecolor="#ffffff" />
  <metadata
     id="metadata2">
Created by potrace 1.16, written by Peter Selinger 2001-2019
<rdf:RDF>
  <cc:Work
     rdf:about="">
    <dc:format>image/svg+xml</dc:format>
    <dc:type
       rdf:resource="http://purl.org/dc/dcmitype/StillImage" />
    <dc:title></dc:title>
  </cc:Work>
</rdf:RDF>
</metadata>
  <g
     id="g10"
     stroke="none"
     fill="#000000"
     transform="matrix(0.808989,0,0,-0.808989,23.976,743.976)">
    <path
       inkscape:connector-curvature="0"
       transform="matrix(0.92708303,0,0,-0.92708303,-29.636991,919.63673)"
       d="m 311.33984,42.753906 c -28.04495,0 -44.22622,9.709016 -80.90039,49.619141 -47.46069,50.696643 -93.84198,153.167223 -129.4375,282.605473 -25.887646,94.92137 -30.202316,220.04644 -11.865231,340.85546 14.022481,90.60678 22.651631,114.33566 56.089841,162.875 26.9663,39.91013 51.77431,62.56257 81.97656,74.42774 52.85395,21.57304 119.73103,22.65064 158.5625,2.15625 39.91013,-20.49439 95.99954,-80.8981 108.94336,-117.57227 23.73035,-62.56182 10.7873,-175.81947 -21.57226,-185.52734 -15.10113,-5.39326 -20.49414,-17.25974 -20.49414,-45.30469 0,-30.20226 -31.28122,-104.62856 -59.32617,-141.30273 -6.47192,-8.62922 -36.67504,12.94447 -30.20313,22.65234 4.31461,6.47191 -2.15563,8.62906 -19.41406,4.31445 -14.02248,-4.3146 -29.12485,-7.55078 -33.43945,-7.55078 -3.23596,0 -11.86403,-24.80946 -18.33594,-55.01172 -8.62922,-40.98877 -8.62922,-59.3248 0,-70.11132 15.10113,-18.33709 49.61793,-19.41664 56.08984,-2.15821 3.23596,8.62922 6.47071,6.47207 6.47071,-4.31445 1.07865,-10.78652 -8.62897,-37.7526 -20.49415,-60.4043 -16.17978,-31.28091 -19.41527,-48.53934 -12.94335,-67.95507 5.39326,-14.02248 14.02328,-61.48283 18.33789,-104.62891 l 7.54882,-77.664064 z m 48.36719,508.833984 c 10.43549,-0.43372 23.02489,7.30148 26.05859,21.86328 2.15731,12.94383 -3.2348,17.25834 -18.33593,16.17969 -14.02248,-1.07865 -22.65235,-8.62844 -22.65235,-21.57227 0,-10.85393 6.8132,-16.13336 14.92969,-16.4707 z"
       style="stroke-width:1.07865"
       id="path4" />
    <path
       inkscape:connector-curvature="0"
       id="path8"
       d="m 611,858 c -5,-14 -4,-47 2,-81 8,-43 7,-67 -1,-91 -15,-40 -16,-138 -2,-116 5,8 12,34 16,58 5,31 11,42 22,40 22,-4 40,-37 25,-46 -6,-4 -13,-34 -15,-67 l -3,-60 -39,-3 c -35,-3 -36,-5 -20,-17 13,-9 23,-10 31,-3 21,17 16,-64 -8,-135 -24,-73 -35,-87 -44,-58 -3,12 -13,21 -22,21 -12,0 -14,9 -8,50 5,35 3,50 -5,50 -20,0 -50,-86 -62,-175 -9,-76 -9,-90 7,-125 52,-115 199,-122 293,-16 44,51 57,104 56,231 -1,93 -8,134 -42,266 -43,168 -76,245 -118,278 -34,27 -52,27 -63,-1 z"
       stroke="none"
       fill="#000000" />
  </g>
</svg>
