<?xml version="1.0" standalone="no"?>
<!DOCTYPE svg PUBLIC "-//W3C//DTD SVG 20010904//EN"
 "http://www.w3.org/TR/2001/REC-SVG-20010904/DTD/svg10.dtd">
<svg version="1.0" xmlns="http://www.w3.org/2000/svg"
 width="76.000000pt" height="96.000000pt" viewBox="0 0 76.000000 96.000000"
 preserveAspectRatio="xMidYMid meet">
<metadata>
Created by potrace 1.16, written by Peter Selinger 2001-2019
</metadata>
<g transform="translate(0.000000,96.000000) scale(0.100000,-0.100000)"
fill="#000000" stroke="none">
<path fill="#000000" stroke="none" d="M270 931 c0 -12 5 -21 10 -21 6 0 10 6
10 14 0 8 -4 18 -10 21 -5 3 -10 -3 -10 -14z"/>
<path fill="#000000" stroke="none" d="M467 930 c-3 -13 0 -20 9 -20 8 0 14 9
14 20 0 11 -4 20 -9 20 -5 0 -11 -9 -14 -20z"/>
<path fill="#000000" stroke="none" d="M251 864 c-24 -30 -26 -60 -9 -115 12
-43 44 -78 57 -63 11 12 41 103 41 126 0 32 -29 78 -50 78 -10 0 -28 -12 -39
-26z"/>
<path fill="#000000" stroke="none" d="M446 871 c-26 -28 -30 -75 -11 -131 27
-82 62 -76 86 14 14 53 -2 109 -35 124 -20 9 -27 7 -40 -7z"/>
<path fill="#000000" stroke="none" d="M727 653 c-11 -10 -8 -63 3 -63 6 0 10
16 10 35 0 36 -2 40 -13 28z"/>
<path fill="#000000" stroke="none" d="M12 590 c1 -13 9 -25 16 -28 17 -5 15
23 -4 39 -14 11 -15 10 -12 -11z"/>
<path fill="#000000" stroke="none" d="M642 550 c-17 -16 -22 -32 -22 -71 0
-43 3 -51 25 -61 22 -10 30 -8 53 9 15 11 33 36 41 56 12 32 12 40 -3 62 -20
31 -63 33 -94 5z"/>
<path fill="#000000" stroke="none" d="M28 530 c-32 -26 -32 -95 1 -121 49
-40 101 -12 101 53 0 66 -57 104 -102 68z"/>
<path fill="#000000" stroke="none" d="M430 383 c-8 -3 -27 -15 -43 -25 -27
-19 -27 -19 -53 1 -35 27 -75 27 -101 -1 -11 -13 -32 -62 -47 -109 -19 -59
-38 -98 -62 -125 -64 -72 -69 -118 -12 -112 30 3 34 8 58 71 19 53 34 75 64
98 32 24 42 26 60 17 11 -6 58 -15 104 -19 96 -9 122 -25 141 -89 19 -64 81
-81 126 -35 32 31 32 65 -1 96 -46 43 -112 138 -119 171 -4 18 -14 41 -23 51
-15 17 -61 22 -92 10z"/>
</g>
</svg>
