<?xml version="1.0" standalone="no"?>
<!DOCTYPE svg PUBLIC "-//W3C//DTD SVG 20010904//EN"
 "http://www.w3.org/TR/2001/REC-SVG-20010904/DTD/svg10.dtd">
<svg version="1.0" xmlns="http://www.w3.org/2000/svg"
 width="94.000000pt" height="83.000000pt" viewBox="0 0 94.000000 83.000000"
 preserveAspectRatio="xMidYMid meet">
<metadata>
Created by potrace 1.16, written by Peter Selinger 2001-2019
</metadata>
<g transform="translate(0.000000,83.000000) scale(0.100000,-0.100000)"
fill="#000000" stroke="none">
<path fill="#000000" stroke="none" d="M404 822 c-12 -1 -34 -16 -49 -33 -34
-35 -41 -36 -48 -8 -4 15 -11 20 -22 15 -9 -3 -30 -6 -46 -6 -23 0 -29 -4 -29
-21 0 -12 -8 -23 -20 -26 -11 -3 -20 -11 -20 -18 0 -7 -14 -18 -30 -24 -29
-10 -40 -34 -21 -45 14 -9 1 -89 -17 -103 -18 -15 -15 -20 13 -25 17 -2 21 3
23 35 3 30 9 40 34 53 23 12 29 20 24 37 -7 30 5 46 37 49 15 1 27 6 27 10 0
4 10 6 22 5 18 -3 22 -11 24 -51 2 -65 29 -99 83 -108 79 -13 111 30 111 153
0 66 16 102 27 60 6 -25 12 -26 41 -5 36 25 27 74 -9 51 -16 -10 -21 -9 -28 2
-7 11 -13 9 -30 -8 -21 -21 -29 -21 -61 4 -8 6 -25 9 -36 7z"/>
<path fill="#000000" stroke="none" d="M597 766 c-11 -9 -18 -27 -18 -52 0
-22 -1 -70 -2 -107 -2 -55 1 -71 16 -81 9 -7 17 -18 17 -25 0 -15 77 -3 105
15 28 20 35 17 35 -12 0 -30 26 -30 44 -1 8 14 8 20 -4 27 -13 9 -11 14 13 31
15 11 27 25 27 30 0 14 -48 11 -53 -3 -4 -9 -6 -8 -6 3 -1 8 4 20 9 25 7 7 6
20 -5 40 -8 16 -15 37 -15 46 0 26 -40 48 -88 48 -35 0 -43 3 -38 15 7 19 -13
19 -37 1z"/>
<path fill="#000000" stroke="none" d="M273 573 c9 -9 19 -14 23 -11 10 10 -6
28 -24 28 -15 0 -15 -1 1 -17z"/>
<path fill="#000000" stroke="none" d="M220 559 c0 -8 7 -24 15 -35 18 -24 19
-7 0 26 -9 16 -14 19 -15 9z"/>
<path fill="#000000" stroke="none" d="M820 540 c-8 -5 -12 -11 -9 -14 2 -3
11 -1 19 4 8 5 12 11 9 14 -2 3 -11 1 -19 -4z"/>
<path fill="#000000" stroke="none" d="M60 507 c0 -31 -14 -35 -29 -10 -5 10
-13 15 -17 11 -4 -4 1 -19 10 -32 20 -31 21 -75 2 -82 -8 -3 -16 -14 -19 -25
-4 -14 3 -24 26 -36 32 -17 32 -17 7 -21 -14 -2 -29 -7 -34 -12 -9 -8 13 -70
25 -70 11 0 29 27 22 33 -3 4 0 13 7 22 11 14 16 13 47 -5 35 -20 79 -26 99
-12 38 25 45 112 14 172 -22 43 -63 70 -108 70 -15 0 -33 5 -40 12 -9 9 -12 6
-12 -15z"/>
<path fill="#000000" stroke="none" d="M390 515 c0 -8 7 -15 15 -15 8 0 15 7
15 15 0 8 -7 15 -15 15 -8 0 -15 -7 -15 -15z"/>
<path fill="#000000" stroke="none" d="M596 444 c-9 -22 3 -32 14 -14 12 19
12 30 1 30 -5 0 -12 -7 -15 -16z"/>
<path fill="#000000" stroke="none" d="M800 435 c0 -14 -4 -25 -9 -25 -5 0
-24 -29 -42 -65 -34 -64 -34 -65 -16 -96 28 -49 23 -69 -17 -69 -39 0 -55 -14
-28 -25 16 -6 16 -7 -2 -21 -26 -19 -29 -18 -60 11 -22 20 -26 32 -26 80 0
117 -41 195 -102 195 -76 0 -153 -70 -164 -150 -5 -41 -10 -48 -56 -75 -31
-19 -57 -44 -69 -67 -10 -20 -24 -40 -30 -44 -8 -4 -9 -3 -5 4 10 17 -19 15
-33 -2 -9 -11 -6 -17 19 -27 16 -8 30 -17 30 -21 0 -5 9 -8 19 -8 11 0 21 -5
23 -10 3 -10 8 -9 115 25 54 17 73 14 73 -11 0 -12 3 -12 20 -2 18 11 23 10
39 -11 14 -18 20 -20 23 -10 4 11 8 12 19 2 15 -15 99 -18 99 -4 0 5 14 14 30
21 17 7 30 19 30 26 0 10 7 13 25 8 35 -9 33 19 -2 33 -26 10 -25 11 20 12 45
1 47 2 41 26 -7 27 -2 30 26 15 15 -8 17 -7 12 12 -3 14 -1 19 6 14 7 -4 12
-1 12 8 0 8 9 21 20 29 12 8 20 18 18 23 -1 5 15 26 35 47 31 32 37 45 37 82
0 49 -19 75 -55 75 -13 0 -27 5 -30 10 -3 6 -15 10 -26 10 -14 0 -19 -7 -19
-25z"/>
<path fill="#000000" stroke="none" d="M670 234 c0 -9 7 -14 17 -12 25 5 28
28 4 28 -12 0 -21 -6 -21 -16z"/>
<path fill="#000000" stroke="none" d="M35 220 c-3 -5 1 -10 9 -10 9 0 16 5
16 10 0 6 -4 10 -9 10 -6 0 -13 -4 -16 -10z"/>
<path fill="#000000" stroke="none" d="M30 185 c-10 -12 -9 -15 5 -15 16 0 16
-2 1 -25 -9 -14 -12 -25 -6 -25 6 0 13 6 16 14 3 8 12 17 20 20 11 4 12 2 4
-14 -5 -10 -10 -22 -10 -26 0 -15 18 11 34 49 l15 37 -33 0 c-19 0 -39 -7 -46
-15z"/>
<path fill="#000000" stroke="none" d="M118 103 c7 -3 16 -2 19 1 4 3 -2 6
-13 5 -11 0 -14 -3 -6 -6z"/>
</g>
</svg>
