<?xml version="1.0" standalone="no"?>
<!DOCTYPE svg PUBLIC "-//W3C//DTD SVG 20010904//EN"
 "http://www.w3.org/TR/2001/REC-SVG-20010904/DTD/svg10.dtd">
<svg version="1.0" xmlns="http://www.w3.org/2000/svg"
 width="767.952000pt" height="767.952000pt" viewBox="0 0 767.952000 767.952000"
 preserveAspectRatio="xMidYMid meet">
<metadata>
Created by potrace 1.16, written by Peter Selinger 2001-2019
</metadata>
<g transform="translate(23.976000,743.976000) scale(0.782609,-0.782609)"
fill="#000000" stroke="none">
<path fill="#000000" stroke="none" d="M497 903 c-3 -5 -6 -179 -8 -388 -3
-375 -3 -381 19 -422 22 -42 59 -78 92 -88 23 -7 87 24 116 57 45 48 58 89 62
193 6 125 -10 215 -58 330 -39 94 -123 250 -160 298 -20 26 -53 36 -63 20z"/>
<path fill="#000000" stroke="none" d="M353 878 c-12 -13 -35 -48 -51 -79 -17
-31 -44 -80 -60 -110 -73 -129 -106 -265 -100 -405 3 -83 7 -96 38 -149 41
-68 106 -125 143 -125 37 0 73 18 86 44 45 86 50 157 25 356 -8 69 -19 161
-24 205 -6 44 -10 126 -10 183 0 110 -7 123 -47 80z"/>
</g>
</svg>
