<?xml version="1.0" standalone="no"?>
<!DOCTYPE svg PUBLIC "-//W3C//DTD SVG 20010904//EN"
 "http://www.w3.org/TR/2001/REC-SVG-20010904/DTD/svg10.dtd">
<svg version="1.0" xmlns="http://www.w3.org/2000/svg"
 width="69.000000pt" height="91.000000pt" viewBox="0 0 69.000000 91.000000"
 preserveAspectRatio="xMidYMid meet">
<metadata>
Created by potrace 1.16, written by Peter Selinger 2001-2019
</metadata>
<g transform="translate(0.000000,91.000000) scale(0.100000,-0.100000)"
fill="#000000" stroke="none">
<path fill="#000000" stroke="none" d="M270 875 c-5 -14 -14 -25 -20 -25 -12
0 -13 -10 -1 -29 8 -12 12 -12 25 -2 8 7 20 10 26 6 14 -9 23 20 16 50 -8 32
-34 32 -46 0z"/>
<path fill="#000000" stroke="none" d="M380 880 c0 -17 -5 -19 -25 -14 -21 5
-25 3 -25 -16 0 -11 5 -18 10 -15 6 3 10 2 10 -4 0 -6 6 -8 14 -5 8 3 17 1 20
-5 4 -6 13 -8 20 -5 8 3 17 1 21 -5 3 -6 16 -11 29 -11 12 0 27 -5 34 -12 7
-7 12 -8 12 -4 0 5 7 3 15 -4 9 -8 15 -9 15 -2 0 6 -13 19 -30 29 -16 9 -30
23 -30 30 0 7 -6 13 -14 13 -7 0 -21 11 -30 25 -20 30 -46 33 -46 5z"/>
<path fill="#000000" stroke="none" d="M187 793 c-4 -3 -7 -13 -7 -22 1 -13 3
-13 11 2 11 19 8 33 -4 20z"/>
<path fill="#000000" stroke="none" d="M229 744 c-42 -69 -21 -164 38 -164 31
0 43 33 43 114 0 92 -39 117 -81 50z"/>
<path fill="#000000" stroke="none" d="M391 756 c-7 -8 -13 -46 -14 -85 -2
-54 2 -74 14 -87 23 -23 55 -10 68 28 15 41 14 131 -1 146 -16 16 -53 15 -67
-2z"/>
<path fill="#000000" stroke="none" d="M581 744 c0 -11 3 -14 6 -6 3 7 2 16
-1 19 -3 4 -6 -2 -5 -13z"/>
<path fill="#000000" stroke="none" d="M534 715 c-10 -25 4 -45 31 -45 29 0
29 0 13 35 -12 28 -35 33 -44 10z"/>
<path fill="#000000" stroke="none" d="M111 694 c0 -11 3 -14 6 -6 3 7 2 16
-1 19 -3 4 -6 -2 -5 -13z"/>
<path fill="#000000" stroke="none" d="M91 632 c-6 -12 -5 -31 2 -55 9 -29 17
-37 32 -35 14 2 21 12 23 32 5 37 -11 54 -34 35 -16 -13 -17 -12 -10 14 7 31
1 36 -13 9z"/>
<path fill="#000000" stroke="none" d="M536 624 c-3 -9 -6 -33 -6 -54 0 -120
107 -168 111 -51 2 57 0 65 -32 94 -33 30 -64 35 -73 11z"/>
<path fill="#000000" stroke="none" d="M662 580 c0 -19 2 -27 5 -17 2 9 2 25
0 35 -3 9 -5 1 -5 -18z"/>
<path fill="#000000" stroke="none" d="M50 581 c0 -5 5 -13 10 -16 6 -3 10 -2
10 4 0 5 -4 13 -10 16 -5 3 -10 2 -10 -4z"/>
<path fill="#000000" stroke="none" d="M343 525 c0 -22 2 -30 4 -17 2 12 2 30
0 40 -3 9 -5 -1 -4 -23z"/>
<path fill="#000000" stroke="none" d="M456 534 c-9 -22 3 -32 14 -14 12 19
12 30 1 30 -5 0 -12 -7 -15 -16z"/>
<path fill="#000000" stroke="none" d="M92 511 c-33 -21 -34 -128 -1 -167 32
-39 79 4 79 74 0 76 -37 120 -78 93z"/>
<path fill="#000000" stroke="none" d="M273 493 c3 -10 8 -30 11 -45 4 -16 10
-28 15 -28 5 0 5 16 0 38 -5 20 -9 40 -9 45 0 4 -5 7 -11 7 -6 0 -8 -8 -6 -17z"/>
<path fill="#000000" stroke="none" d="M396 473 c-6 -14 -5 -15 5 -6 7 7 10
15 7 18 -3 3 -9 -2 -12 -12z"/>
<path fill="#000000" stroke="none" d="M476 459 c-9 -11 -16 -25 -14 -31 2 -6
12 2 22 17 21 33 17 42 -8 14z"/>
<path fill="#000000" stroke="none" d="M200 425 c0 -16 44 -88 47 -79 2 6 -6
28 -18 48 -20 34 -29 43 -29 31z"/>
<path fill="#000000" stroke="none" d="M520 400 c0 -13 11 -13 30 0 12 8 11
10 -7 10 -13 0 -23 -4 -23 -10z"/>
<path fill="#000000" stroke="none" d="M15 340 c3 -5 8 -10 11 -10 2 0 4 5 4
10 0 6 -5 10 -11 10 -5 0 -7 -4 -4 -10z"/>
<path fill="#000000" stroke="none" d="M180 312 c6 -13 14 -21 18 -18 3 4 -2
14 -12 24 -18 16 -18 16 -6 -6z"/>
<path fill="#000000" stroke="none" d="M563 323 c-7 -2 -13 -8 -13 -12 0 -11
49 -1 56 10 5 9 -22 11 -43 2z"/>
<path fill="#000000" stroke="none" d="M284 275 c-14 -19 -34 -35 -43 -35 -9
0 -33 -14 -54 -31 -40 -33 -48 -67 -21 -93 18 -19 25 -20 58 -5 20 9 29 9 41
-1 10 -8 48 -15 94 -16 75 -2 79 -1 90 22 16 35 14 59 -6 75 -9 8 -25 33 -35
56 -13 29 -27 44 -50 52 -43 15 -44 15 -74 -24z"/>
<path fill="#000000" stroke="none" d="M540 261 c0 -9 52 -22 60 -15 7 7 -23
24 -42 24 -10 0 -18 -4 -18 -9z"/>
<path fill="#000000" stroke="none" d="M540 206 c0 -2 7 -9 15 -16 13 -11 14
-10 9 4 -5 14 -24 23 -24 12z"/>
<path fill="#000000" stroke="none" d="M510 165 c7 -8 17 -15 22 -15 6 0 5 7
-2 15 -7 8 -17 15 -22 15 -6 0 -5 -7 2 -15z"/>
<path fill="#000000" stroke="none" d="M470 152 c0 -5 7 -17 15 -28 15 -19 20
-8 9 20 -6 17 -24 22 -24 8z"/>
<path fill="#000000" stroke="none" d="M220 60 c0 -5 5 -10 11 -10 5 0 7 5 4
10 -3 6 -8 10 -11 10 -2 0 -4 -4 -4 -10z"/>
<path fill="#000000" stroke="none" d="M386 31 c13 -12 83 -21 89 -11 6 9 -29
20 -69 20 -18 0 -26 -4 -20 -9z"/>
</g>
</svg>
