<?xml version="1.0" standalone="no"?>
<!DOCTYPE svg PUBLIC "-//W3C//DTD SVG 20010904//EN"
 "http://www.w3.org/TR/2001/REC-SVG-20010904/DTD/svg10.dtd">
<svg version="1.0" xmlns="http://www.w3.org/2000/svg"
 width="78.000000pt" height="97.000000pt" viewBox="0 0 78.000000 97.000000"
 preserveAspectRatio="xMidYMid meet">
<metadata>
Created by potrace 1.16, written by Peter Selinger 2001-2019
</metadata>
<g transform="translate(0.000000,97.000000) scale(0.100000,-0.100000)"
fill="#000000" stroke="none">
<path fill="#000000" stroke="none" d="M586 948 c-2 -7 -7 -46 -10 -86 -4 -55
-2 -72 7 -68 7 3 20 9 30 12 13 5 17 17 16 53 -1 25 -4 57 -8 70 -7 28 -29 39
-35 19z"/>
<path fill="#000000" stroke="none" d="M338 900 c-4 -62 -1 -70 23 -70 27 0
31 18 16 69 -18 62 -34 63 -39 1z"/>
<path fill="#000000" stroke="none" d="M316 779 c-22 -25 -26 -41 -26 -90 0
-33 5 -69 10 -80 14 -26 53 -24 85 4 35 29 47 132 21 172 -23 35 -58 32 -90
-6z"/>
<path fill="#000000" stroke="none" d="M548 760 c-38 -29 -51 -71 -44 -132 8
-66 15 -76 52 -84 27 -5 33 -1 60 38 24 35 29 53 29 101 0 50 -4 62 -24 78
-29 24 -42 24 -73 -1z"/>
<path fill="#000000" stroke="none" d="M10 652 c0 -39 4 -52 14 -52 23 0 27
15 15 51 -19 56 -29 56 -29 1z"/>
<path fill="#000000" stroke="none" d="M742 603 c-9 -32 -10 -49 -2 -57 20
-20 36 19 32 82 -3 36 -17 25 -30 -25z"/>
<path fill="#000000" stroke="none" d="M32 568 c-23 -28 -24 -101 -3 -150 11
-27 24 -48 29 -48 23 0 74 35 82 56 12 31 -3 109 -25 134 -20 22 -67 26 -83 8z"/>
<path fill="#000000" stroke="none" d="M647 483 c-31 -46 -45 -116 -27 -138
23 -28 73 -18 113 21 47 48 52 64 30 111 -15 32 -23 38 -54 41 -31 3 -39 -1
-62 -35z"/>
<path fill="#000000" stroke="none" d="M366 393 c-36 -9 -96 -53 -96 -69 0 -8
-13 -29 -30 -46 -16 -16 -30 -33 -30 -37 0 -4 -13 -20 -29 -35 -42 -40 -57
-80 -42 -112 18 -41 86 -64 220 -75 l119 -9 48 28 c65 38 88 77 73 123 -7 19
-29 51 -50 72 -21 21 -41 50 -45 65 -10 50 -24 72 -49 82 -38 14 -68 19 -89
13z"/>
<path fill="#000000" stroke="none" d="M116 373 c-11 -11 -6 -23 9 -23 8 0 15
4 15 9 0 13 -16 22 -24 14z"/>
</g>
</svg>
