<?xml version="1.0" standalone="no"?>
<!DOCTYPE svg PUBLIC "-//W3C//DTD SVG 20010904//EN"
 "http://www.w3.org/TR/2001/REC-SVG-20010904/DTD/svg10.dtd">
<svg version="1.0" xmlns="http://www.w3.org/2000/svg"
 width="767.952000pt" height="767.952000pt" viewBox="0 0 767.952000 767.952000"
 preserveAspectRatio="xMidYMid meet">
<metadata>
Created by potrace 1.16, written by Peter Selinger 2001-2019
</metadata>
<g transform="translate(23.976000,743.976000) scale(0.827586,-0.827586)"
fill="#000000" stroke="none">
<path fill="#000000" stroke="none" d="M572 852 c-21 -16 -23 -28 -32 -178 -9
-153 -11 -166 -47 -255 -34 -83 -38 -104 -38 -179 0 -75 3 -91 28 -132 32 -56
52 -68 104 -68 116 0 243 196 243 374 0 75 -28 180 -76 284 -48 104 -80 149
-116 161 -39 14 -39 14 -66 -7z"/>
<path fill="#000000" stroke="none" d="M151 805 c-23 -33 -53 -96 -72 -153
-32 -92 -34 -104 -33 -232 0 -114 4 -144 22 -191 32 -81 90 -159 147 -196 72
-48 126 -41 185 22 22 23 25 35 24 98 0 60 -7 90 -42 181 -40 101 -44 118 -52
250 -11 176 -21 214 -60 249 -47 42 -72 36 -119 -28z"/>
</g>
</svg>
