<?xml version="1.0" standalone="no"?>
<!DOCTYPE svg PUBLIC "-//W3C//DTD SVG 20010904//EN"
 "http://www.w3.org/TR/2001/REC-SVG-20010904/DTD/svg10.dtd">
<svg version="1.0" xmlns="http://www.w3.org/2000/svg"
 width="69.000000pt" height="97.000000pt" viewBox="0 0 69.000000 97.000000"
 preserveAspectRatio="xMidYMid meet">
<metadata>
Created by potrace 1.16, written by Peter Selinger 2001-2019
</metadata>
<g transform="translate(0.000000,97.000000) scale(0.100000,-0.100000)"
fill="#000000" stroke="none">
<path fill="#000000" stroke="none" d="M368 933 c-11 -27 -12 -27 -15 -5 -7
35 -23 26 -23 -13 0 -29 4 -35 21 -35 18 0 19 -3 9 -15 -19 -22 -2 -37 33 -29
18 3 38 11 45 16 9 8 12 6 12 -6 0 -9 5 -16 10 -16 13 0 13 50 0 70 -5 8 -10
11 -10 5 0 -5 -9 5 -20 23 -24 39 -47 41 -62 5z"/>
<path fill="#000000" stroke="none" d="M270 939 c0 -12 -7 -15 -24 -12 -19 4
-25 -1 -34 -26 -13 -37 -6 -62 14 -54 8 3 21 -1 30 -8 14 -11 19 -9 35 11 24
32 23 49 -1 80 -14 18 -20 21 -20 9z"/>
<path fill="#000000" stroke="none" d="M159 843 c-3 -36 3 -58 18 -66 13 -8
12 -11 -2 -27 -15 -17 -15 -21 7 -64 20 -40 27 -45 55 -46 29 0 33 4 39 35 10
57 -3 104 -33 116 -14 5 -34 7 -44 4 -16 -5 -19 -1 -19 29 0 36 -19 52 -21 19z"/>
<path fill="#000000" stroke="none" d="M379 813 c-8 -9 -14 -39 -14 -72 0 -45
4 -60 23 -78 12 -12 22 -18 22 -13 0 6 13 10 29 10 27 0 30 3 33 38 2 29 7 37
23 37 11 0 27 -11 36 -25 15 -23 15 -26 -2 -43 -12 -11 -19 -32 -19 -57 0 -30
-5 -40 -19 -45 -25 -8 -16 -35 11 -35 15 0 19 -5 15 -20 -3 -12 1 -24 11 -29
13 -8 14 -12 3 -25 -11 -13 -11 -17 3 -22 20 -8 21 -24 1 -24 -8 0 -19 -9 -25
-19 -15 -28 -13 -33 11 -26 25 8 23 -12 -3 -29 -17 -10 -48 12 -48 34 0 6 -6
18 -14 26 -8 7 -16 18 -18 24 -2 6 -30 17 -63 25 -66 15 -85 8 -85 -30 0 -22
-28 -55 -48 -55 -17 0 -72 -50 -72 -66 0 -8 11 -20 25 -26 21 -9 32 -8 61 5
19 9 37 23 39 29 6 14 92 17 113 4 17 -10 15 -26 -3 -26 -21 0 -19 -18 5 -32
20 -13 27 -42 13 -51 -5 -2 -3 -2 4 -1 6 2 17 -4 23 -12 19 -22 34 -17 53 16
10 17 22 30 27 30 6 0 6 10 0 25 -7 19 -6 26 8 34 15 9 14 11 -8 20 -18 7 -20
10 -7 10 9 1 17 6 17 12 0 6 8 9 17 7 9 -2 27 7 40 19 12 13 31 23 42 23 22 0
39 42 40 103 0 26 -4 37 -14 37 -20 0 -28 40 -16 74 15 39 13 54 -5 31 -14
-19 -14 -17 -8 23 5 35 3 45 -12 57 -10 7 -22 11 -26 9 -3 -2 -12 12 -18 31
-12 35 -43 49 -53 23 -3 -7 -6 1 -6 18 -1 28 -15 44 -38 44 -3 0 -3 -16 0 -35
3 -21 2 -33 -4 -30 -5 4 -9 12 -9 20 0 17 -38 45 -61 45 -9 0 -23 -7 -30 -17z"/>
<path fill="#000000" stroke="none" d="M311 794 c0 -11 3 -14 6 -6 3 7 2 16
-1 19 -3 4 -6 -2 -5 -13z"/>
<path fill="#000000" stroke="none" d="M110 763 c0 -22 17 -49 25 -41 8 8 -5
58 -16 58 -5 0 -9 -8 -9 -17z"/>
<path fill="#000000" stroke="none" d="M93 680 c-3 -11 -14 -20 -24 -20 -11 0
-20 -9 -23 -22 -16 -78 -15 -89 3 -104 11 -10 16 -24 14 -35 -3 -11 0 -26 7
-34 6 -8 9 -18 7 -23 -12 -18 9 -33 34 -23 46 17 54 35 39 96 -12 49 -16 55
-39 55 -17 0 -22 3 -13 8 7 5 12 24 11 43 -1 19 2 44 6 57 5 14 3 22 -5 22 -6
0 -14 -9 -17 -20z"/>
<path fill="#000000" stroke="none" d="M355 610 c3 -5 11 -10 16 -10 6 0 7 5
4 10 -3 6 -11 10 -16 10 -6 0 -7 -4 -4 -10z"/>
<path fill="#000000" stroke="none" d="M300 590 c0 -5 7 -10 15 -10 8 0 15 5
15 10 0 6 -7 10 -15 10 -8 0 -15 -4 -15 -10z"/>
<path fill="#000000" stroke="none" d="M157 563 c-4 -3 -7 -11 -7 -17 0 -6 5
-5 12 2 6 6 9 14 7 17 -3 3 -9 2 -12 -2z"/>
<path fill="#000000" stroke="none" d="M12 524 c1 -9 9 -19 16 -22 9 -3 13 2
10 14 -1 9 -9 19 -16 22 -9 3 -13 -2 -10 -14z"/>
<path fill="#000000" stroke="none" d="M370 530 c0 -5 5 -10 10 -10 6 0 10 5
10 10 0 6 -4 10 -10 10 -5 0 -10 -4 -10 -10z"/>
<path fill="#000000" stroke="none" d="M480 460 c0 -13 5 -20 13 -17 6 2 12
10 12 17 0 7 -6 15 -12 18 -8 2 -13 -5 -13 -18z"/>
<path fill="#000000" stroke="none" d="M10 462 c0 -5 9 -17 20 -27 11 -10 20
-24 20 -32 0 -7 5 -13 11 -13 12 0 11 2 -16 47 -19 31 -35 42 -35 25z"/>
<path fill="#000000" stroke="none" d="M660 360 c0 -5 -14 -10 -31 -10 -24 0
-30 -4 -27 -17 5 -29 34 -26 58 6 12 17 17 31 11 31 -6 0 -11 -4 -11 -10z"/>
<path fill="#000000" stroke="none" d="M40 300 c0 -11 39 -34 46 -27 6 6 -25
37 -37 37 -5 0 -9 -4 -9 -10z"/>
<path fill="#000000" stroke="none" d="M580 293 c0 -5 6 -17 13 -26 11 -15 14
-15 37 3 24 19 24 20 3 20 -12 0 -28 3 -37 6 -9 3 -16 2 -16 -3z"/>
<path fill="#000000" stroke="none" d="M284 244 c3 -8 6 -20 6 -25 0 -5 5 -9
10 -9 16 0 11 37 -6 44 -12 5 -15 2 -10 -10z"/>
<path fill="#000000" stroke="none" d="M60 231 c0 -13 28 -33 41 -29 8 3 6 9
-5 21 -19 18 -36 22 -36 8z"/>
<path fill="#000000" stroke="none" d="M573 208 c-21 -10 -32 -28 -18 -28 10
0 65 30 65 35 0 8 -23 4 -47 -7z"/>
<path fill="#000000" stroke="none" d="M150 179 c0 -5 5 -7 10 -4 6 3 10 8 10
11 0 2 -4 4 -10 4 -5 0 -10 -5 -10 -11z"/>
<path fill="#000000" stroke="none" d="M425 170 c-3 -5 1 -10 9 -10 9 0 16 5
16 10 0 6 -4 10 -9 10 -6 0 -13 -4 -16 -10z"/>
<path fill="#000000" stroke="none" d="M504 158 c4 -15 2 -30 -4 -33 -14 -9
-12 -25 3 -25 21 0 80 57 67 65 -6 4 -18 1 -26 -6 -12 -10 -18 -8 -30 7 -15
18 -15 18 -10 -8z"/>
<path fill="#000000" stroke="none" d="M100 161 c0 -12 28 -22 35 -12 3 5 -2
12 -11 15 -21 8 -24 8 -24 -3z"/>
<path fill="#000000" stroke="none" d="M395 130 c-9 -15 -1 -23 21 -18 15 3
16 4 1 16 -11 9 -17 10 -22 2z"/>
<path fill="#000000" stroke="none" d="M450 131 c0 -6 5 -13 10 -16 6 -3 10 1
10 9 0 9 -4 16 -10 16 -5 0 -10 -4 -10 -9z"/>
<path fill="#000000" stroke="none" d="M159 128 c0 -2 -2 -15 -4 -30 -3 -26
-1 -28 31 -28 19 0 34 2 34 5 0 11 -58 61 -61 53z"/>
<path fill="#000000" stroke="none" d="M297 87 c-3 -24 -9 -51 -13 -60 -3 -9
-1 -17 4 -17 6 0 14 9 17 20 8 26 19 25 33 -2 10 -23 11 -22 11 5 1 32 -24 97
-37 97 -5 0 -12 -19 -15 -43z"/>
<path fill="#000000" stroke="none" d="M355 101 c-6 -11 9 -23 19 -14 9 9 7
23 -3 23 -6 0 -12 -4 -16 -9z"/>
<path fill="#000000" stroke="none" d="M458 68 c8 -8 17 -8 34 0 22 10 21 11
-11 11 -27 1 -32 -2 -23 -11z"/>
<path fill="#000000" stroke="none" d="M370 50 c0 -23 31 -41 38 -22 2 7 13
10 28 6 14 -4 24 -2 24 4 0 15 -15 23 -55 28 -30 4 -35 1 -35 -16z"/>
<path fill="#000000" stroke="none" d="M217 53 c-12 -11 -8 -23 7 -23 7 0 19
7 26 15 10 12 9 15 -7 15 -11 0 -23 -3 -26 -7z"/>
</g>
</svg>
