<?xml version="1.0" standalone="no"?>
<!DOCTYPE svg PUBLIC "-//W3C//DTD SVG 20010904//EN"
 "http://www.w3.org/TR/2001/REC-SVG-20010904/DTD/svg10.dtd">
<svg version="1.0" xmlns="http://www.w3.org/2000/svg"
 width="87.000000pt" height="102.000000pt" viewBox="0 0 87.000000 102.000000"
 preserveAspectRatio="xMidYMid meet">
<metadata>
Created by potrace 1.16, written by Peter Selinger 2001-2019
</metadata>
<g transform="translate(0.000000,102.000000) scale(0.100000,-0.100000)"
fill="#000000" stroke="none">
<path fill="#000000" stroke="none" d="M401 1010 c-7 -4 -11 -20 -9 -36 2 -25
7 -28 28 -26 32 5 34 7 26 35 -6 27 -26 39 -45 27z"/>
<path fill="#000000" stroke="none" d="M283 998 c-6 -7 -14 -23 -17 -35 -7
-21 -4 -23 24 -23 29 0 31 2 28 32 -3 34 -19 46 -35 26z"/>
<path fill="#000000" stroke="none" d="M385 910 c-10 -12 -24 -46 -31 -78
l-12 -57 -1 48 c-1 61 -29 92 -74 83 -62 -13 -110 -88 -111 -174 -1 -48 2 -57
32 -83 69 -62 152 -24 152 68 0 35 3 44 10 33 5 -8 10 -24 10 -36 0 -12 11
-33 25 -48 45 -49 119 -28 146 42 21 54 4 143 -37 192 -31 37 -81 41 -109 10z"/>
<path fill="#000000" stroke="none" d="M580 871 c0 -46 5 -51 43 -44 34 7 35
32 4 61 -34 32 -47 28 -47 -17z"/>
<path fill="#000000" stroke="none" d="M607 799 c-31 -18 -57 -94 -57 -165 0
-57 3 -65 25 -80 34 -22 109 -14 136 14 10 12 24 41 31 65 27 101 -61 209
-135 166z"/>
<path fill="#000000" stroke="none" d="M52 730 c-18 -29 -16 -64 4 -56 9 3 22
6 30 6 9 0 14 11 14 35 0 27 -4 35 -18 35 -9 0 -23 -9 -30 -20z"/>
<path fill="#000000" stroke="none" d="M52 653 c-18 -7 -42 -70 -42 -112 0
-48 29 -103 62 -119 61 -29 158 23 158 85 0 20 -16 45 -58 91 -56 61 -79 72
-120 55z"/>
<path fill="#000000" stroke="none" d="M797 654 c-14 -15 -6 -42 14 -47 17 -5
20 -1 17 21 -3 26 -18 38 -31 26z"/>
<path fill="#000000" stroke="none" d="M785 562 c-35 -18 -64 -73 -62 -117 4
-62 98 -69 126 -9 22 49 10 125 -21 136 -7 3 -27 -2 -43 -10z"/>
<path fill="#ffffff" stroke="none" d="M780 435 c-7 -9 -15 -13 -17 -11 -7 7
7 26 19 26 6 0 6 -6 -2 -15z"/>
<path fill="#000000" stroke="none" d="M358 423 c-9 -10 -29 -45 -46 -78 -21
-42 -47 -73 -86 -104 -80 -63 -96 -131 -45 -195 53 -67 171 -27 194 67 5 19
16 28 38 32 18 3 44 11 60 17 22 8 31 7 45 -5 26 -23 99 -57 121 -57 32 0 61
39 61 81 0 49 -57 146 -125 211 l-49 48 -77 0 c-60 0 -79 -4 -91 -17z"/>
</g>
</svg>
