<?xml version="1.0" encoding="UTF-8" standalone="no"?>
<svg
   xmlns:dc="http://purl.org/dc/elements/1.1/"
   xmlns:cc="http://creativecommons.org/ns#"
   xmlns:rdf="http://www.w3.org/1999/02/22-rdf-syntax-ns#"
   xmlns:svg="http://www.w3.org/2000/svg"
   xmlns="http://www.w3.org/2000/svg"
   xmlns:sodipodi="http://sodipodi.sourceforge.net/DTD/sodipodi-0.dtd"
   xmlns:inkscape="http://www.inkscape.org/namespaces/inkscape"
   inkscape:version="1.0rc1 (09960d6f05, 2020-04-09)"
   sodipodi:docname="wolverine_outline.svg"
   id="svg28"
   preserveAspectRatio="xMidYMid meet"
   viewBox="0 0 767.952000 767.952000"
   height="767.952000pt"
   width="767.952000pt"
   version="1.0">
  <defs
     id="defs32" />
  <sodipodi:namedview
     inkscape:current-layer="g26"
     inkscape:cy="511.96802"
     inkscape:cx="511.96802"
     inkscape:zoom="0.94048844"
     showgrid="false"
     id="namedview30"
     inkscape:window-height="480"
     inkscape:window-width="640"
     inkscape:pageshadow="2"
     inkscape:pageopacity="0"
     guidetolerance="10"
     gridtolerance="10"
     objecttolerance="10"
     borderopacity="1"
     bordercolor="#666666"
     pagecolor="#ffffff" />
  <metadata
     id="metadata2">
Created by potrace 1.16, written by Peter Selinger 2001-2019
<rdf:RDF>
  <cc:Work
     rdf:about="">
    <dc:format>image/svg+xml</dc:format>
    <dc:type
       rdf:resource="http://purl.org/dc/dcmitype/StillImage" />
  </cc:Work>
</rdf:RDF>
</metadata>
  <g
     id="g26"
     stroke="none"
     fill="#000000"
     transform="matrix(0.705882,0,0,-0.705882,23.976,743.976)">
    <path
       inkscape:connector-curvature="0"
       id="path4"
       d="m 471,1010 c -7,-4 -11,-20 -9,-36 2,-25 7,-28 28,-26 32,5 34,7 26,35 -6,27 -26,39 -45,27 z"
       stroke="none"
       fill="#000000" />
    <path
       inkscape:connector-curvature="0"
       id="path6"
       d="m 353,998 c -6,-7 -14,-23 -17,-35 -7,-21 -4,-23 24,-23 29,0 31,2 28,32 -3,34 -19,46 -35,26 z"
       stroke="none"
       fill="#000000" />
    <path
       inkscape:connector-curvature="0"
       id="path8"
       d="m 455,910 c -10,-12 -24,-46 -31,-78 l -12,-57 -1,48 c -1,61 -29,92 -74,83 -62,-13 -110,-88 -111,-174 -1,-48 2,-57 32,-83 69,-62 152,-24 152,68 0,35 3,44 10,33 5,-8 10,-24 10,-36 0,-12 11,-33 25,-48 45,-49 119,-28 146,42 21,54 4,143 -37,192 -31,37 -81,41 -109,10 z"
       stroke="none"
       fill="#000000" />
    <path
       inkscape:connector-curvature="0"
       id="path10"
       d="m 650,871 c 0,-46 5,-51 43,-44 34,7 35,32 4,61 -34,32 -47,28 -47,-17 z"
       stroke="none"
       fill="#000000" />
    <path
       inkscape:connector-curvature="0"
       id="path12"
       d="m 677,799 c -31,-18 -57,-94 -57,-165 0,-57 3,-65 25,-80 34,-22 109,-14 136,14 10,12 24,41 31,65 27,101 -61,209 -135,166 z"
       stroke="none"
       fill="#000000" />
    <path
       inkscape:connector-curvature="0"
       id="path14"
       d="m 122,730 c -18,-29 -16,-64 4,-56 9,3 22,6 30,6 9,0 14,11 14,35 0,27 -4,35 -18,35 -9,0 -23,-9 -30,-20 z"
       stroke="none"
       fill="#000000" />
    <path
       inkscape:connector-curvature="0"
       id="path16"
       d="m 122,653 c -18,-7 -42,-70 -42,-112 0,-48 29,-103 62,-119 61,-29 158,23 158,85 0,20 -16,45 -58,91 -56,61 -79,72 -120,55 z"
       stroke="none"
       fill="#000000" />
    <path
       inkscape:connector-curvature="0"
       id="path18"
       d="m 867,654 c -14,-15 -6,-42 14,-47 17,-5 20,-1 17,21 -3,26 -18,38 -31,26 z"
       stroke="none"
       fill="#000000" />
    <path
       inkscape:connector-curvature="0"
       id="path20"
       d="m 855,562 c -35,-18 -64,-73 -62,-117 4,-62 98,-69 126,-9 22,49 10,125 -21,136 -7,3 -27,-2 -43,-10 z"
       stroke="none"
       fill="#000000" />
    <path
       inkscape:connector-curvature="0"
       id="path24"
       d="M 428,423 C 419,413 399,378 382,345 361,303 335,272 296,241 216,178 200,110 251,46 c 53,-67 171,-27 194,67 5,19 16,28 38,32 18,3 44,11 60,17 22,8 31,7 45,-5 26,-23 99,-57 121,-57 32,0 61,39 61,81 0,49 -57,146 -125,211 l -49,48 h -77 c -60,0 -79,-4 -91,-17 z"
       stroke="none"
       fill="#000000" />
  </g>
</svg>
