<?xml version="1.0" standalone="no"?>
<!DOCTYPE svg PUBLIC "-//W3C//DTD SVG 20010904//EN"
 "http://www.w3.org/TR/2001/REC-SVG-20010904/DTD/svg10.dtd">
<svg version="1.0" xmlns="http://www.w3.org/2000/svg"
 width="62.000000pt" height="91.000000pt" viewBox="0 0 62.000000 91.000000"
 preserveAspectRatio="xMidYMid meet">
<metadata>
Created by potrace 1.16, written by Peter Selinger 2001-2019
</metadata>
<g transform="translate(0.000000,91.000000) scale(0.100000,-0.100000)"
fill="#000000" stroke="none">
<path fill="#000000" stroke="none" d="M257 883 c-15 -29 -37 -121 -37 -151 1
-15 2 -15 13 -1 7 9 17 14 23 12 11 -4 30 154 20 164 -2 3 -11 -8 -19 -24z"/>
<path fill="#000000" stroke="none" d="M379 886 c-7 -7 2 -186 9 -186 9 0 32
74 32 103 0 47 -25 98 -41 83z"/>
<path fill="#000000" stroke="none" d="M87 801 c-28 -61 -38 -139 -15 -124 7
4 17 8 22 8 5 0 15 27 22 60 6 33 15 72 19 88 13 50 -19 30 -48 -32z"/>
<path fill="#000000" stroke="none" d="M564 794 c3 -9 6 -47 6 -86 0 -51 3
-69 13 -66 17 6 20 31 12 104 -5 48 -10 64 -22 64 -10 0 -13 -6 -9 -16z"/>
<path fill="#000000" stroke="none" d="M393 678 c-48 -60 -63 -170 -28 -208
42 -47 78 -9 96 101 7 45 6 67 -3 87 -14 30 -49 40 -65 20z"/>
<path fill="#000000" stroke="none" d="M217 653 c-19 -22 -40 -101 -35 -139 2
-21 13 -33 42 -48 l38 -21 25 29 c22 26 25 37 21 92 -6 90 -50 132 -91 87z"/>
<path fill="#000000" stroke="none" d="M25 606 c-25 -38 -18 -159 10 -180 25
-19 45 -20 45 -3 0 7 11 23 26 36 22 20 24 27 19 69 -12 87 -67 129 -100 78z"/>
<path fill="#000000" stroke="none" d="M528 538 c-27 -29 -30 -37 -26 -86 8
-89 40 -95 85 -16 28 48 29 95 5 117 -25 23 -29 22 -64 -15z"/>
<path fill="#000000" stroke="none" d="M190 405 c-7 -8 -19 -15 -26 -15 -8 0
-14 -8 -14 -18 0 -11 -11 -24 -24 -30 -21 -9 -24 -17 -21 -44 2 -18 6 -56 9
-85 10 -109 90 -209 165 -207 87 3 135 62 153 187 6 48 17 80 34 102 30 40 32
60 3 43 -18 -11 -23 -10 -40 15 -23 30 -59 36 -79 12 -19 -22 -32 -19 -73 20
-40 38 -67 44 -87 20z"/>
</g>
</svg>
