<?xml version="1.0" standalone="no"?>
<!DOCTYPE svg PUBLIC "-//W3C//DTD SVG 20010904//EN"
 "http://www.w3.org/TR/2001/REC-SVG-20010904/DTD/svg10.dtd">
<svg version="1.0" xmlns="http://www.w3.org/2000/svg"
 width="767.952000pt" height="767.952000pt" viewBox="0 0 767.952000 767.952000"
 preserveAspectRatio="xMidYMid meet">
<metadata>
Created by potrace 1.16, written by Peter Selinger 2001-2019
</metadata>
<g transform="translate(23.976000,743.976000) scale(0.782609,-0.782609)"
fill="#000000" stroke="none">
<path fill="#000000" stroke="none" d="M467 823 c-4 -3 -7 -14 -7 -24 0 -9 -5
-19 -12 -21 -7 -3 -13 -31 -14 -74 -1 -38 -7 -133 -13 -212 -5 -78 -8 -149 -4
-157 5 -16 50 -20 69 -7 21 13 24 48 25 248 1 138 -2 199 -10 202 -6 2 -11 15
-11 28 0 23 -10 31 -23 17z"/>
<path fill="#000000" stroke="none" d="M13 373 c9 -9 19 -14 23 -11 10 10 -6
28 -24 28 -15 0 -15 -1 1 -17z"/>
<path fill="#000000" stroke="none" d="M57 353 c-10 -10 -8 -53 2 -53 5 0 24
-12 41 -27 18 -15 45 -34 61 -42 16 -9 50 -29 75 -45 49 -30 66 -29 87 6 20
31 0 62 -60 90 -32 15 -75 32 -95 38 -20 6 -42 18 -48 26 -13 14 -51 19 -63 7z"/>
<path fill="#000000" stroke="none" d="M879 342 c-8 -13 -20 -17 -43 -14 -20
2 -48 -4 -72 -17 -65 -33 -77 -39 -121 -50 -25 -7 -47 -21 -54 -32 -13 -25 -4
-69 14 -69 21 0 229 89 249 107 10 9 18 21 18 27 0 7 9 19 20 29 11 9 20 21
20 27 0 16 -19 11 -31 -8z"/>
<path fill="#000000" stroke="none" d="M386 282 l-19 -27 24 22 c12 12 21 24
18 27 -2 2 -13 -8 -23 -22z"/>
<path fill="#000000" stroke="none" d="M432 194 c-12 -8 -27 -24 -33 -35 -22
-41 48 -81 102 -59 44 19 45 41 5 77 -41 38 -44 38 -74 17z"/>
</g>
</svg>
