<?xml version="1.0" standalone="no"?>
<!DOCTYPE svg PUBLIC "-//W3C//DTD SVG 20010904//EN"
 "http://www.w3.org/TR/2001/REC-SVG-20010904/DTD/svg10.dtd">
<svg version="1.0" xmlns="http://www.w3.org/2000/svg"
 width="767.952000pt" height="767.952000pt" viewBox="0 0 767.952000 767.952000"
 preserveAspectRatio="xMidYMid meet">
<metadata>
Created by potrace 1.16, written by Peter Selinger 2001-2019
</metadata>
<g transform="translate(23.976000,743.976000) scale(0.800000,-0.800000)"
fill="#000000" stroke="none">
<path fill="#000000" stroke="none" d="M667 812 c-9 -10 -17 -24 -17 -30 0 -7
-6 -12 -13 -12 -22 0 -79 -62 -98 -108 -25 -58 -24 -96 4 -122 33 -32 82 -20
129 31 45 49 52 80 41 178 -8 79 -19 93 -46 63z"/>
<path fill="#000000" stroke="none" d="M309 788 c-53 -72 -63 -141 -29 -215
21 -47 49 -60 93 -44 28 11 67 64 67 93 0 50 -24 122 -51 149 -16 16 -29 34
-29 39 0 21 -27 9 -51 -22z"/>
<path fill="#000000" stroke="none" d="M81 673 c-7 -15 -29 -52 -48 -82 -34
-50 -35 -57 -30 -115 5 -52 10 -65 36 -88 75 -67 171 -8 171 105 0 35 -7 54
-37 92 -20 26 -39 62 -42 79 -9 40 -34 45 -50 9z"/>
<path fill="#000000" stroke="none" d="M816 528 c-50 -43 -96 -122 -96 -166 0
-13 8 -37 17 -53 21 -36 56 -38 104 -6 48 32 67 92 50 158 -7 27 -10 62 -6 79
9 42 -9 39 -69 -12z"/>
<path fill="#000000" stroke="none" d="M358 424 c-23 -20 -75 -61 -115 -90
-80 -59 -108 -100 -98 -143 9 -43 44 -68 115 -87 53 -13 74 -14 113 -5 66 15
134 14 185 -4 104 -37 209 43 166 127 -8 15 -37 46 -65 70 -28 24 -69 68 -91
99 -41 59 -61 69 -133 69 -23 0 -46 -11 -77 -36z"/>
</g>
</svg>
