<?xml version="1.0" standalone="no"?>
<!DOCTYPE svg PUBLIC "-//W3C//DTD SVG 20010904//EN"
 "http://www.w3.org/TR/2001/REC-SVG-20010904/DTD/svg10.dtd">
<svg version="1.0" xmlns="http://www.w3.org/2000/svg"
 width="81.000000pt" height="90.000000pt" viewBox="0 0 81.000000 90.000000"
 preserveAspectRatio="xMidYMid meet">
<metadata>
Created by potrace 1.16, written by Peter Selinger 2001-2019
</metadata>
<g transform="translate(0.000000,90.000000) scale(0.100000,-0.100000)"
fill="#000000" stroke="none">
<path fill="#000000" stroke="none" d="M238 878 c-46 -12 -121 -77 -152 -131
-13 -23 -37 -80 -52 -127 -26 -75 -29 -99 -28 -200 0 -91 5 -130 23 -185 39
-122 80 -177 149 -203 109 -40 137 -35 187 36 27 39 30 52 29 112 0 43 -6 77
-16 92 -20 31 -45 138 -53 223 -5 57 -2 88 19 168 29 107 31 142 15 184 -17
45 -43 52 -121 31z"/>
<path fill="#000000" stroke="none" d="M418 861 c-28 -36 -20 -106 28 -246 48
-139 51 -228 15 -351 -23 -78 -23 -82 -7 -136 18 -64 47 -92 108 -108 69 -19
113 10 179 120 66 111 82 239 55 432 -28 200 -142 321 -296 317 -52 -2 -64 -6
-82 -28z"/>
</g>
</svg>
