<?xml version="1.0" standalone="no"?>
<!DOCTYPE svg PUBLIC "-//W3C//DTD SVG 20010904//EN"
 "http://www.w3.org/TR/2001/REC-SVG-20010904/DTD/svg10.dtd">
<svg version="1.0" xmlns="http://www.w3.org/2000/svg"
 width="767.952000pt" height="767.952000pt" viewBox="0 0 767.952000 767.952000"
 preserveAspectRatio="xMidYMid meet">
<metadata>
Created by potrace 1.16, written by Peter Selinger 2001-2019
</metadata>
<g transform="translate(23.976000,743.976000) scale(0.757895,-0.757895)"
fill="#000000" stroke="none">
<path fill="#000000" stroke="none" d="M460 854 c-21 -54 -10 -114 21 -114 16
0 19 8 19 48 0 86 -20 119 -40 66z"/>
<path fill="#000000" stroke="none" d="M436 681 c-23 -44 -36 -144 -36 -283 0
-69 -3 -133 -6 -142 -10 -26 -44 -18 -112 26 -53 34 -75 43 -123 46 -43 3 -60
9 -64 21 -5 15 -63 61 -78 61 -4 0 -7 -8 -7 -18 0 -23 40 -62 63 -62 11 0 17
-8 17 -24 0 -26 18 -43 140 -133 157 -115 228 -130 316 -70 27 19 76 49 109
67 86 47 133 87 155 131 22 43 25 65 9 74 -18 12 -54 -3 -122 -50 -75 -51
-113 -62 -140 -41 -17 13 -19 33 -20 183 -3 192 -15 243 -61 243 -18 0 -30 -9
-40 -29z"/>
<path fill="#000000" stroke="none" d="M875 425 c-14 -13 -25 -34 -25 -45 0
-17 4 -20 23 -15 31 10 67 45 67 67 0 26 -36 23 -65 -7z"/>
</g>
</svg>
