<?xml version="1.0" standalone="no"?>
<!DOCTYPE svg PUBLIC "-//W3C//DTD SVG 20010904//EN"
 "http://www.w3.org/TR/2001/REC-SVG-20010904/DTD/svg10.dtd">
<svg version="1.0" xmlns="http://www.w3.org/2000/svg"
 width="79.000000pt" height="69.000000pt" viewBox="0 0 79.000000 69.000000"
 preserveAspectRatio="xMidYMid meet">
<metadata>
Created by potrace 1.16, written by Peter Selinger 2001-2019
</metadata>
<g transform="translate(0.000000,69.000000) scale(0.100000,-0.100000)"
fill="#000000" stroke="none">
<path fill="#000000" stroke="none" d="M333 651 c-23 -40 -21 -51 8 -51 12 0
18 11 22 38 6 53 -4 57 -30 13z"/>
<path fill="#000000" stroke="none" d="M512 655 c-17 -38 -15 -55 8 -55 17 0
20 7 20 40 0 46 -11 52 -28 15z"/>
<path fill="#000000" stroke="none" d="M152 624 c-25 -51 -24 -59 7 -49 15 4
21 15 21 35 0 16 3 35 6 44 3 9 2 16 -3 16 -5 0 -19 -21 -31 -46z"/>
<path fill="#000000" stroke="none" d="M644 569 c-13 -26 -14 -33 -2 -40 22
-14 33 -4 36 34 4 45 -12 48 -34 6z"/>
<path fill="#000000" stroke="none" d="M283 575 c-45 -32 -50 -125 -8 -141 66
-26 126 85 75 136 -24 24 -38 25 -67 5z"/>
<path fill="#000000" stroke="none" d="M440 548 c-22 -37 -24 -55 -10 -92 12
-32 58 -36 84 -7 22 24 31 83 17 110 -19 34 -67 28 -91 -11z"/>
<path fill="#000000" stroke="none" d="M86 519 c-39 -46 -33 -123 10 -133 38
-10 73 4 89 35 49 94 -34 176 -99 98z"/>
<path fill="#000000" stroke="none" d="M585 485 c-42 -41 -27 -125 21 -125 8
0 26 11 39 25 42 41 27 125 -21 125 -8 0 -26 -11 -39 -25z"/>
<path fill="#000000" stroke="none" d="M755 450 c-9 -17 -13 -35 -10 -40 11
-18 33 -11 39 13 16 60 -3 77 -29 27z"/>
<path fill="#000000" stroke="none" d="M178 365 c-131 -54 -173 -102 -172
-195 1 -92 57 -170 121 -170 10 0 54 21 97 47 78 46 80 47 155 43 147 -8 236
-5 268 8 103 44 35 181 -127 256 -58 27 -77 30 -175 33 -97 2 -117 -1 -167
-22z"/>
<path fill="#000000" stroke="none" d="M695 356 c-9 -14 -15 -39 -13 -58 2
-27 8 -34 29 -36 36 -4 71 40 67 82 -3 27 -7 31 -35 34 -25 2 -35 -2 -48 -22z"/>
</g>
</svg>
