<?xml version="1.0" standalone="no"?>
<!DOCTYPE svg PUBLIC "-//W3C//DTD SVG 20010904//EN"
 "http://www.w3.org/TR/2001/REC-SVG-20010904/DTD/svg10.dtd">
<svg version="1.0" xmlns="http://www.w3.org/2000/svg"
 width="81.000000pt" height="96.000000pt" viewBox="0 0 81.000000 96.000000"
 preserveAspectRatio="xMidYMid meet">
<metadata>
Created by potrace 1.16, written by Peter Selinger 2001-2019
</metadata>
<g transform="translate(0.000000,96.000000) scale(0.100000,-0.100000)"
fill="#000000" stroke="none">
<path fill="#000000" stroke="none" d="M501 890 c0 -36 3 -59 6 -52 2 6 12 12
20 12 12 0 14 8 10 37 -4 20 -13 44 -22 52 -13 14 -15 9 -14 -49z"/>
<path fill="#000000" stroke="none" d="M277 862 c-10 -18 -17 -46 -15 -62 3
-26 5 -27 21 -15 14 10 17 24 15 62 l-3 48 -18 -33z"/>
<path fill="#000000" stroke="none" d="M463 734 c-16 -25 -16 -29 0 -74 9 -26
17 -66 17 -88 0 -84 76 -106 133 -40 20 24 27 43 27 73 0 109 -128 203 -177
129z"/>
<path fill="#000000" stroke="none" d="M278 713 c-38 -42 -51 -71 -50 -120 3
-115 121 -184 182 -106 25 32 25 49 0 98 -11 22 -20 56 -20 77 0 73 -64 102
-112 51z"/>
<path fill="#000000" stroke="none" d="M720 651 l0 -64 20 26 c25 32 25 49 0
78 l-19 24 -1 -64z"/>
<path fill="#000000" stroke="none" d="M72 678 c-7 -7 -12 -25 -12 -40 0 -26
2 -28 20 -18 13 7 20 21 20 40 0 32 -9 37 -28 18z"/>
<path fill="#000000" stroke="none" d="M715 541 c-3 -10 -21 -29 -39 -42 -63
-43 -83 -102 -46 -139 40 -40 122 -14 155 50 18 35 20 121 3 138 -19 19 -66
15 -73 -7z"/>
<path fill="#000000" stroke="none" d="M45 514 c-52 -56 -40 -170 23 -225 28
-25 41 -30 65 -25 37 8 61 28 77 67 16 38 7 72 -33 112 -17 18 -40 48 -49 65
-21 39 -50 42 -83 6z"/>
<path fill="#000000" stroke="none" d="M404 312 c-6 -4 -16 -16 -22 -28 -6
-12 -37 -34 -68 -50 -58 -29 -94 -65 -94 -93 0 -30 39 -80 77 -100 58 -29 150
-44 200 -33 67 15 130 58 154 103 32 64 24 80 -51 106 -36 12 -71 30 -77 40
-41 58 -85 78 -119 55z"/>
</g>
</svg>
