<?xml version="1.0" standalone="no"?>
<!DOCTYPE svg PUBLIC "-//W3C//DTD SVG 20010904//EN"
 "http://www.w3.org/TR/2001/REC-SVG-20010904/DTD/svg10.dtd">
<svg version="1.0" xmlns="http://www.w3.org/2000/svg"
 width="767.952000pt" height="767.952000pt" viewBox="0 0 767.952000 767.952000"
 preserveAspectRatio="xMidYMid meet">
<metadata>
Created by potrace 1.16, written by Peter Selinger 2001-2019
</metadata>
<g transform="translate(23.976000,743.976000) scale(0.750000,-0.750000)"
fill="#000000" stroke="none">
<path fill="#000000" stroke="none" d="M470 928 c-11 -18 -20 -48 -20 -66 0
-19 -9 -46 -19 -61 -14 -19 -21 -52 -26 -116 -7 -86 -22 -136 -46 -151 -14 -8
-87 66 -109 111 -10 20 -28 35 -55 44 -24 8 -48 26 -60 44 -11 17 -26 32 -32
35 -19 6 -17 -63 2 -82 10 -10 13 -24 9 -41 -5 -20 3 -37 36 -81 62 -82 112
-193 108 -241 l-3 -38 -63 -3 c-44 -2 -69 2 -84 13 -25 17 -58 20 -58 6 0 -5
15 -21 33 -36 17 -14 50 -43 72 -64 22 -21 57 -43 77 -50 29 -10 42 -22 57
-54 10 -23 29 -53 41 -65 19 -21 29 -23 69 -18 46 7 65 7 153 3 43 -2 49 1 82
38 41 47 64 107 73 190 7 67 31 98 115 146 36 21 49 37 63 73 10 26 15 49 12
53 -15 14 -104 -22 -144 -59 -67 -60 -93 -50 -93 36 0 34 8 53 40 96 36 48 47
76 40 105 -5 25 -2 53 13 98 8 26 11 49 7 52 -12 7 -63 -82 -55 -95 4 -6 -4
-10 -19 -10 -33 0 -58 -34 -81 -109 -19 -65 -54 -107 -79 -98 -9 4 -16 17 -16
29 0 27 26 165 35 191 4 10 0 28 -9 42 -9 13 -16 39 -16 57 0 51 -12 108 -21
108 -5 0 -18 -15 -29 -32z"/>
</g>
</svg>
