<?xml version="1.0" standalone="no"?>
<!DOCTYPE svg PUBLIC "-//W3C//DTD SVG 20010904//EN"
 "http://www.w3.org/TR/2001/REC-SVG-20010904/DTD/svg10.dtd">
<svg version="1.0" xmlns="http://www.w3.org/2000/svg"
 width="767.952000pt" height="767.952000pt" viewBox="0 0 767.952000 767.952000"
 preserveAspectRatio="xMidYMid meet">
<metadata>
Created by potrace 1.16, written by Peter Selinger 2001-2019
</metadata>
<g transform="translate(23.976000,743.976000) scale(0.867470,-0.867470)"
fill="#000000" stroke="none">
<path fill="#000000" stroke="none" d="M513 777 c-44 -25 -64 -63 -66 -126 -1
-50 3 -66 29 -107 26 -43 34 -49 67 -52 79 -7 124 88 99 208 -17 80 -69 111
-129 77z"/>
<path fill="#000000" stroke="none" d="M218 753 c-49 -52 -60 -112 -32 -179
24 -58 52 -84 92 -84 54 0 68 26 71 133 2 79 -1 93 -21 123 -30 44 -72 46
-110 7z"/>
<path fill="#000000" stroke="none" d="M697 552 c-57 -38 -106 -131 -107 -205
0 -27 54 -77 83 -77 14 0 43 15 65 32 32 26 46 47 61 95 19 55 20 68 9 109 -9
33 -20 49 -36 55 -33 13 -43 11 -75 -9z"/>
<path fill="#000000" stroke="none" d="M53 478 c-39 -55 -46 -80 -38 -134 13
-90 101 -137 143 -76 52 75 62 119 38 176 -20 48 -51 76 -84 76 -22 0 -36 -10
-59 -42z"/>
<path fill="#000000" stroke="none" d="M389 381 c-26 -6 -207 -186 -221 -219
-4 -9 -7 -32 -7 -49 -1 -28 4 -35 39 -53 47 -24 78 -25 128 -4 30 12 64 14
184 10 142 -5 148 -5 168 16 41 44 21 87 -58 127 -38 19 -70 46 -97 80 -22 28
-47 60 -55 70 -18 23 -46 31 -81 22z"/>
</g>
</svg>
