<?xml version="1.0" standalone="no"?>
<!DOCTYPE svg PUBLIC "-//W3C//DTD SVG 20010904//EN"
 "http://www.w3.org/TR/2001/REC-SVG-20010904/DTD/svg10.dtd">
<svg version="1.0" xmlns="http://www.w3.org/2000/svg"
 width="68.000000pt" height="86.000000pt" viewBox="0 0 68.000000 86.000000"
 preserveAspectRatio="xMidYMid meet">
<metadata>
Created by potrace 1.16, written by Peter Selinger 2001-2019
</metadata>
<g transform="translate(0.000000,86.000000) scale(0.100000,-0.100000)"
fill="#000000" stroke="none">
<path fill="#000000" stroke="none" d="M190 827 c-108 -54 -161 -143 -168
-283 -4 -76 -1 -98 16 -137 26 -58 70 -87 133 -87 87 0 118 58 94 173 -32 157
-29 209 20 281 29 43 31 61 9 70 -28 11 -58 6 -104 -17z"/>
<path fill="#000000" stroke="none" d="M423 834 c-3 -9 4 -36 16 -60 28 -60
27 -129 -4 -216 -15 -42 -25 -91 -25 -124 0 -48 4 -60 29 -85 75 -74 190 -5
221 134 14 63 -7 164 -50 237 -41 71 -57 88 -102 111 -45 23 -77 24 -85 3z"/>
<path fill="#000000" stroke="none" d="M17 183 c-24 -23 13 -128 55 -157 27
-19 69 -21 86 -4 27 27 13 64 -42 117 -50 47 -82 61 -99 44z"/>
<path fill="#000000" stroke="none" d="M567 131 c-32 -33 -57 -63 -57 -68 0
-26 33 -53 66 -53 44 0 79 33 94 90 28 106 -19 120 -103 31z"/>
</g>
</svg>
